<?xml version="1.0" encoding="iso-8859-1"?>
<!-- Generator: Adobe Illustrator 18.0.0, SVG Export Plug-In . SVG Version: 6.00 Build 0)  -->
<!DOCTYPE svg PUBLIC "-//W3C//DTD SVG 1.1//EN" "http://www.w3.org/Graphics/SVG/1.1/DTD/svg11.dtd">
<svg version="1.1" id="Capa_1" xmlns="http://www.w3.org/2000/svg" xmlns:xlink="http://www.w3.org/1999/xlink" x="0px" y="0px"
	 viewBox="0 0 439.801 439.801" style="enable-background:new 0 0 439.801 439.801;" xml:space="preserve">
<g>
	<path d="M280.829,72.865c0-1.381-1.119-2.5-2.5-2.5c-1.189,0-2.185,0.831-2.438,1.943c-0.493,0.32-1.96,0.89-4.303,0.89
		c-2.343,0-3.81-0.57-4.303-0.89c-0.253-1.112-1.248-1.943-2.438-1.943c-1.381,0-2.5,1.119-2.5,2.5c0,3.14,3.8,5.333,9.24,5.333
		C277.029,78.198,280.829,76.005,280.829,72.865z"/>
	<path d="M263.647,60.846c0-0.66-0.27-1.3-0.739-1.77c-0.92-0.93-2.601-0.93-3.53,0c-0.47,0.47-0.73,1.11-0.73,1.77
		c0,0.66,0.261,1.3,0.73,1.77c0.46,0.46,1.11,0.73,1.77,0.73c0.66,0,1.301-0.27,1.761-0.73
		C263.377,62.146,263.647,61.506,263.647,60.846z"/>
	<path d="M282.038,63.346c0.66,0,1.3-0.27,1.76-0.74c0.47-0.46,0.74-1.1,0.74-1.76c0-0.66-0.271-1.3-0.74-1.77
		c-0.93-0.93-2.6-0.93-3.53,0c-0.47,0.47-0.729,1.11-0.729,1.77c0,0.66,0.26,1.3,0.729,1.76
		C280.727,63.076,281.368,63.346,282.038,63.346z"/>
	<path d="M229.622,134.143c-0.995-0.216-2.064,0.193-2.643,1.106c-0.738,1.167-0.392,2.711,0.774,3.45
		c0.34,0.216,0.993,0.532,1.889,0.532c0.793,0,1.775-0.248,2.901-1.031c1.101-0.767,2.193-1.957,3.076-3.352
		c2.387-3.771,2.433-7.291,0.116-8.757c-1.166-0.737-2.711-0.392-3.449,0.775c-0.577,0.911-0.491,2.053,0.13,2.861
		c-0.064,0.461-0.339,1.368-1.021,2.446C230.712,133.252,230.01,133.887,229.622,134.143z"/>
	<path d="M228.377,123.665c0.66,0,1.31-0.27,1.77-0.73c0.471-0.47,0.74-1.11,0.74-1.77c0-0.66-0.27-1.3-0.74-1.77
		c-0.93-0.93-2.6-0.93-3.54,0c-0.46,0.47-0.729,1.11-0.729,1.77c0,0.66,0.27,1.3,0.729,1.77
		C227.078,123.396,227.727,123.665,228.377,123.665z"/>
	<path d="M220.158,136.656c0.659,0,1.3-0.27,1.77-0.73c0.46-0.47,0.73-1.11,0.73-1.77c0-0.66-0.271-1.3-0.73-1.77
		c-0.939-0.93-2.61-0.93-3.54,0c-0.46,0.47-0.729,1.11-0.729,1.77c0,0.66,0.26,1.3,0.729,1.77
		C218.847,136.386,219.498,136.656,220.158,136.656z"/>
	<path d="M188.81,279.493c0.002,1.011,0.45,2.878,3.422,4.023c1.443,0.556,3.305,0.861,5.246,0.861c0.015,0,0.028,0,0.042,0
		c1.958-0.004,3.835-0.318,5.286-0.884c2.967-1.157,3.406-3.026,3.404-4.037c-0.003-1.379-1.122-2.495-2.5-2.495
		c-0.002,0-0.004,0-0.006,0c-1.107,0.003-2.046,0.725-2.371,1.724c-0.528,0.279-1.851,0.688-3.824,0.692
		c-1.935-0.014-3.297-0.399-3.825-0.675c-0.329-0.996-1.268-1.714-2.376-1.714c0,0-0.002,0-0.004,0
		C189.924,276.991,188.807,278.113,188.81,279.493z"/>
	<path d="M187.207,269.086c0.66,0,1.3-0.27,1.77-0.73c0.46-0.47,0.73-1.11,0.73-1.77c0-0.66-0.27-1.3-0.73-1.77
		c-0.93-0.93-2.609-0.93-3.54,0c-0.46,0.47-0.73,1.11-0.73,1.77c0,0.66,0.27,1.31,0.73,1.77
		C185.897,268.816,186.547,269.086,187.207,269.086z"/>
	<path d="M207.817,269.046c0.66,0,1.301-0.27,1.77-0.74c0.46-0.46,0.73-1.11,0.73-1.76c0-0.66-0.27-1.31-0.73-1.77
		c-0.93-0.93-2.62-0.93-3.54,0c-0.47,0.46-0.73,1.11-0.73,1.77c0,0.66,0.261,1.3,0.73,1.76
		C206.507,268.776,207.158,269.046,207.817,269.046z"/>
	<path d="M302.419,187.964c-0.003,0-0.005,0-0.008,0c-1.089,0.003-2.013,0.702-2.353,1.674c-0.51,0.253-1.733,0.616-3.526,0.62
		c-0.01,0-0.02,0-0.03,0c-1.777,0-2.992-0.355-3.5-0.605c-0.344-0.97-1.27-1.664-2.356-1.664c-0.003,0-0.005,0-0.008,0
		c-1.381,0.004-2.496,1.127-2.492,2.508c0.009,2.851,3.364,4.761,8.353,4.761c0.015,0,0.029,0,0.044,0
		c1.874-0.004,3.672-0.305,5.064-0.848c2.889-1.127,3.315-2.961,3.312-3.954C304.915,189.078,303.796,187.964,302.419,187.964z"/>
	<path d="M289.248,178.516c0-0.66-0.26-1.3-0.73-1.77c-0.93-0.93-2.6-0.93-3.54,0c-0.46,0.47-0.729,1.11-0.729,1.77
		c0,0.65,0.27,1.3,0.729,1.77c0.471,0.46,1.11,0.73,1.771,0.73c0.66,0,1.31-0.27,1.77-0.73
		C288.988,179.816,289.248,179.165,289.248,178.516z"/>
	<path d="M304.547,176.746c-0.47,0.46-0.73,1.11-0.73,1.77c0,0.66,0.271,1.3,0.73,1.76c0.47,0.47,1.11,0.74,1.77,0.74
		c0.66,0,1.301-0.27,1.771-0.74c0.46-0.46,0.729-1.11,0.729-1.76c0-0.66-0.27-1.3-0.729-1.77
		C307.158,175.816,305.477,175.816,304.547,176.746z"/>
	<path d="M89.758,112.246c5.44,0,9.24-2.193,9.24-5.333c0-1.381-1.119-2.5-2.5-2.5c-1.189,0-2.185,0.831-2.438,1.943
		c-0.493,0.32-1.96,0.89-4.303,0.89c-2.343,0-3.81-0.57-4.303-0.89c-0.253-1.112-1.248-1.943-2.438-1.943
		c-1.381,0-2.5,1.119-2.5,2.5C80.518,110.053,84.318,112.246,89.758,112.246z"/>
	<path d="M77.227,97.626c0.66,0,1.301-0.27,1.771-0.73c0.47-0.47,0.729-1.11,0.729-1.77c0-0.66-0.26-1.31-0.729-1.77
		c-0.931-0.93-2.61-0.93-3.54,0c-0.46,0.46-0.73,1.11-0.73,1.77c0,0.65,0.271,1.3,0.73,1.76
		C75.927,97.356,76.567,97.626,77.227,97.626z"/>
	<path d="M102.288,97.626c0.66,0,1.3-0.27,1.769-0.74c0.46-0.46,0.731-1.1,0.731-1.76c0-0.66-0.271-1.31-0.731-1.77
		c-0.93-0.93-2.62-0.93-3.54,0c-0.46,0.46-0.729,1.11-0.729,1.77c0,0.66,0.269,1.3,0.729,1.76
		C100.977,97.356,101.627,97.626,102.288,97.626z"/>
	<path d="M362.04,105.284c0-1.381-1.119-2.5-2.5-2.5c-0.781,0-1.479,0.359-1.939,0.92c-0.695,0.206-2.354,0.496-4.802,0.496
		s-4.107-0.29-4.802-0.496c-0.459-0.562-1.157-0.92-1.938-0.92c-1.381,0-2.5,1.119-2.5,2.5c0,0.969,0,3.917,9.24,3.917
		S362.04,106.253,362.04,105.284z"/>
	<path d="M343.544,74.275h18.514c1.381,0,2.5-1.119,2.5-2.5c0-1.381-1.119-2.5-2.5-2.5h-18.514c-1.381,0-2.5,1.119-2.5,2.5
		C341.044,73.156,342.164,74.275,343.544,74.275z"/>
	<path d="M347.617,66.168h10.369c1.381,0,2.5-1.119,2.5-2.5c0-1.381-1.119-2.5-2.5-2.5h-10.369c-1.381,0-2.5,1.119-2.5,2.5
		C345.117,65.049,346.236,66.168,347.617,66.168z"/>
	<path d="M338.757,90.696c0.66,0,1.3-0.27,1.771-0.74c0.47-0.47,0.729-1.11,0.729-1.77c0-0.65-0.26-1.29-0.729-1.76
		c-0.931-0.93-2.601-0.93-3.54,0c-0.46,0.46-0.73,1.11-0.73,1.76c0,0.66,0.271,1.31,0.73,1.77
		C337.457,90.426,338.097,90.696,338.757,90.696z"/>
	<path d="M366.837,90.696c0.66,0,1.31-0.27,1.77-0.74c0.471-0.46,0.74-1.11,0.74-1.76c0-0.66-0.27-1.31-0.74-1.77
		c-0.93-0.93-2.6-0.93-3.529,0c-0.471,0.46-0.74,1.11-0.74,1.77c0,0.65,0.27,1.3,0.74,1.76
		C365.538,90.426,366.187,90.696,366.837,90.696z"/>
	<path d="M428.935,261.521l-0.408-3.009l1.376-9.083c0.013-0.084-19.949-99.715-19.949-99.715
		c-0.218-1.874-2.672-17.914-23.261-23.155l-19.522-6.545v-4.16c7.627-4.652,12.41-13.098,12.41-23.381v-0.557
		c1.119-0.614,2.492-1.684,3.615-3.533c2.735-4.506,2.689-11.421-0.138-20.556c-3.224-10.417-11.669-15.983-20.769-13.895
		c-2.814-1.535-6.031-2.359-9.588-2.359c-3.557,0-6.773,0.824-9.588,2.358c-9.094-2.088-17.543,3.479-20.767,13.895
		c-2.827,9.134-2.873,16.05-0.138,20.556c1.122,1.85,2.496,2.919,3.614,3.533v0.557c0,10.284,4.784,18.731,12.412,23.383v4.159
		l-13.588,4.556c-1.842-5.546-8.002-19.531-24.132-23.323l-16.327-3.918v-5.797c10.202-0.479,17.556-3.933,21.868-10.298
		c8.576-12.658,1.817-32.253,0.572-35.575c-0.096-8.885-2.927-16.061-8.418-21.333c-9.974-9.576-25.157-9.381-26.714-9.339
		c-1.459-0.045-16.716-0.274-26.728,9.339c-5.491,5.273-8.322,12.448-8.418,21.333c-1.245,3.322-8.004,22.917,0.572,35.575
		c4.313,6.366,11.666,9.82,21.868,10.298v5.797l-16.316,3.915c-1.884,0.443-3.686,1.056-5.415,1.81
		c-1.165-2.315-2.895-4.996-5.414-7.608c-0.143-0.203-0.319-0.38-0.52-0.535c-3.698-3.659-8.999-7.114-16.586-9.125l-20.369-9.797
		v-3.863c3.953-4.189,6.632-10.479,8.308-19.171c3.379-1.86,9.891-8.606,6.054-32.577C206.813,9.642,203.083,0.002,176.687,0
		c0,0,0,0-0.001,0c0,0-0.003,0-0.005,0c-0.001,0-0.002,0-0.004,0h-0.001c-26.398,0.002-30.126,9.642-31.845,20.38
		c-3.837,23.97,2.674,30.715,6.053,32.576c1.676,8.692,4.355,14.982,8.308,19.171v3.863l-20.368,9.797
		c-22.469,5.951-25.065,23.953-25.283,25.923l-3.92,19.993l-7.263-1.743v-10.394c6.623-5.151,11.03-14.198,11.03-24.485
		c0,0-0.009-16.824-0.011-16.859c-0.034-7.108-3.483-13.322-8.928-17.325c0.751-1.876,1.147-3.887,1.147-5.927
		c0-8.788-7.148-15.937-15.936-15.937c-8.788,0-15.938,7.149-15.938,15.937c0,2.04,0.396,4.051,1.149,5.928
		c-5.438,3.999-8.884,10.202-8.926,17.298c-0.003,0.044-0.014,16.885-0.014,16.885c0,10.286,4.406,19.331,11.028,24.483v10.396
		l-16.316,3.915c-19.84,4.664-24.602,24.733-24.798,25.597L13.255,261.465c-0.294-0.021-0.587-0.045-0.886-0.045
		c-6.778,0-12.293,5.514-12.293,12.293v163.588c0,1.381,1.119,2.5,2.5,2.5c1.381,0,2.5-1.119,2.5-2.5V273.712
		c0-3.949,3.157-7.167,7.079-7.282l-0.588,2.652c-0.644,2.846-0.139,5.772,1.419,8.239c1.559,2.467,3.984,4.179,6.83,4.822
		c0.807,0.182,1.619,0.272,2.427,0.272c2.041,0,4.044-0.575,5.813-1.692c2.445-1.545,4.149-3.942,4.805-6.756l23.537-82.199
		c1.726,4.195,2.677,7.504,0.229,11.686c-13.005,22.23-12.628,41.643-12.509,44.294c-0.446,3.04-3.353,27.819,8.164,96.193
		c0.202,1.204,1.244,2.085,2.465,2.085h6.935c1.528,19.04,4.395,46.705,9.574,75.459c-4.783,1.261-11.138,5.441-12.363,15.513
		c-0.087,0.711,0.136,1.424,0.61,1.96c0.475,0.536,1.155,0.842,1.871,0.842h56.572c0.716,0,1.396-0.307,1.871-0.842
		c0.475-0.536,0.697-1.249,0.61-1.96c-1.226-10.071-7.58-14.251-12.363-15.513c5.18-28.754,8.046-56.419,9.574-75.459h6.935
		c1.221,0,2.263-0.881,2.465-2.085c11.521-68.409,8.606-93.179,8.162-96.198c0.104-2.33,0.393-17.378-8.149-35.923l0.484-2.298
		l8.69,29.597v180.205c-1.306,0.705-2.485,1.606-3.528,2.711c-5.49,5.816-5.026,15.021-5.004,15.41
		c0.076,1.323,1.171,2.356,2.496,2.356h96.802c1.349,0,2.454-1.069,2.499-2.417c0.008-0.251,0.16-6.186-3.711-10.188
		c-0.863-0.893-1.848-1.614-2.943-2.165c-0.878-1.534-1.936-2.858-3.18-3.941l1.5-19.138h1.122c1.381,0,2.5-1.119,2.5-2.5v-64.979
		l0.5,0.942c0.598,1.123,1.94,1.619,3.124,1.153l0.268-0.105l11.928,27.169c0.771,2.194,2.789,3.625,5.256,4.01
		c1.962,16.403,4.518,33.226,7.613,50.056c-0.319,1.921-2.382,11.839-11.57,17.473c-0.954,0.585-1.403,1.733-1.1,2.811
		c0.304,1.077,1.287,1.821,2.406,1.821h101.633c1.381,0,2.5-1.119,2.5-2.5v-12.804h0.5c1.349,0,2.454-1.069,2.499-2.417
		l2.367-71.313l2.367,71.313c0.045,1.348,1.15,2.417,2.499,2.417h0.5v12.804c0,1.381,1.119,2.5,2.5,2.5h34.043
		c1.323,0,2.417-1.031,2.496-2.352c0.02-0.343,0.442-8.476-4.495-13.715c-0.959-1.018-2.047-1.848-3.251-2.5v-160.27
		c0.145-0.693,0.283-1.393,0.417-2.099c0.001-0.007,0.003-0.013,0.004-0.02c2.577-13.653,3.056-29.679,2.686-44.092
		c0,0,7.368,35.572,7.443,35.686l5.913,8.909l1.897,8.55c0.771,5.327,5.459,9.21,10.827,9.21c0.465,0,0.935-0.029,1.409-0.089
		c2.944-0.373,5.55-1.856,7.337-4.178c1.379-1.791,2.123-3.917,2.189-6.121c3.023,0.89,5.239,3.686,5.239,6.993v163.588
		c0,1.381,1.119,2.5,2.5,2.5c1.381,0,2.5-1.119,2.5-2.5V273.712C439.724,267.444,435.005,262.267,428.935,261.521z M409.506,255.852
		l-2.85-4.296h17.868l-0.65,4.296H409.506z M373.913,127.548l-0.545,12.21l-11.128-4.931l4.999-9.517L373.913,127.548z
		 M360.488,152.683l-1.634-6.161l4.126-5.898l5.486,2.431C367.703,145.601,365.649,150.207,360.488,152.683z M352.704,154.355
		c-1.066-0.013-2.061-0.096-2.993-0.237l1.479-5.579h3.027l1.48,5.579C354.765,154.259,353.77,154.342,352.704,154.355z
		 M336.941,143.055l5.486-2.431l4.126,5.898l-1.634,6.161C339.758,150.207,337.705,145.601,336.941,143.055z M358.322,138.559
		l-3.484,4.98h-4.268l-3.484-4.98H358.322z M352.703,56.574c11.681,0,16.368,10.934,16.969,21.983h-13.266
		c-1.281,0-2.326,0.968-2.471,2.211h-2.465c-0.145-1.243-1.189-2.211-2.471-2.211h-13.266
		C336.335,67.507,341.022,56.574,352.703,56.574z M330.824,87.5v-2.509v-1.435h15.676V87.5c0,2.776-2.259,5.035-5.035,5.035h-5.605
		C333.082,92.535,330.824,90.277,330.824,87.5z M350.056,92.658c0.91-1.509,1.443-3.271,1.443-5.158v-1.733h2.406V87.5
		c0,1.889,0.534,3.651,1.445,5.161v0.846c0,1.46-1.189,2.647-2.648,2.647c-1.459,0-2.646-1.188-2.646-2.647V92.658z M358.906,87.5
		v-3.944h15.676v1.435V87.5c0,2.776-2.259,5.035-5.035,5.035h-5.605C361.164,92.535,358.906,90.277,358.906,87.5z M378.283,69.306
		c2.452,7.921,2.198,12.464,1.299,15.048v-3.297c0-1.381-1.119-2.5-2.5-2.5h-2.404c-0.392-8.387-2.771-15.229-6.698-19.922
		C372.598,59.434,376.4,63.224,378.283,69.306z M327.124,69.306c1.881-6.083,5.684-9.873,10.303-10.672
		c-3.928,4.693-6.307,11.536-6.699,19.923h-2.404c-1.381,0-2.5,1.119-2.5,2.5v3.295C324.925,81.768,324.673,77.225,327.124,69.306z
		 M331.122,96.343c1.412,0.759,3.024,1.192,4.737,1.192h5.605c1.518,0,2.951-0.348,4.242-0.954c1.186,2.689,3.873,4.574,6.996,4.574
		c3.123,0,5.812-1.884,6.998-4.573c1.29,0.605,2.724,0.953,4.24,0.953h5.605c1.713,0,3.325-0.433,4.737-1.192
		c-1.599,11.015-10.012,18.421-21.581,18.421C341.133,114.764,332.72,107.357,331.122,96.343z M352.703,119.764
		c3.382,0,6.562-0.542,9.469-1.552v5.994l-4.893,9.314h-9.15l-4.893-9.314v-5.994C346.142,119.221,349.322,119.764,352.703,119.764z
		 M343.167,134.827l-11.128,4.931l-0.545-12.21l6.674-2.238L343.167,134.827z M319.91,126.159l-1.195,0.401
		c-4.775,1.216-8.549,3.039-11.545,5.098c-0.599-0.849-1.293-1.608-2.084-2.27c-1.06-0.886-2.634-0.747-3.522,0.312
		c-0.886,1.058-0.747,2.635,0.311,3.521c0.541,0.453,1.001,1.001,1.395,1.621c-1.834,1.788-3.207,3.612-4.238,5.287
		c-1.289-0.104-2.206-0.08-2.602-0.058c-0.83-0.043-3.911,0.202-7.77,0.988c-3.676-2.55-6.066-4.784-6.745-5.831
		c-1.026-1.583-2.123-2.896-3.232-4.004c-0.05-0.1-3.14-4.413-4.691-6.168v-4.244c12.804-0.668,21.675-6.501,23.373-15.179
		l1.997,0.479C313.142,109.352,318.387,121.531,319.91,126.159z M352.498,308.547c0.184,0.822,0.036,1.666-0.415,2.377
		c-0.451,0.711-1.151,1.203-1.975,1.387c-0.818,0.183-1.666,0.037-2.377-0.415c-0.712-0.451-1.435-2.159-1.466-2.249
		c0,0-22.699-65.308-22.734-65.384l0.559-4.53l9.677-8.577L352.498,308.547z M312.373,423.149h-7.988l0.02-78.442h16.618
		C320.66,373.929,314.011,413.75,312.373,423.149z M275.475,423.451c-0.515,0.108-1.007,0.25-1.484,0.41v-3.708h0.924
		C275.129,421.439,275.321,422.559,275.475,423.451z M258.085,415.152c-2.943-16.179-5.38-32.336-7.266-48.102
		c3.941-1.538,6.15-5.185,5.036-8.62l-5.191-14.094c0.378,0.23,0.817,0.37,1.292,0.37h14.893
		c0.123,10.125,0.988,21.486,2.142,32.439v38.006H258.085z M211.289,294.568v-4.096c0.286-0.208,0.568-0.425,0.848-0.646v4.905
		L211.289,294.568z M197.428,300.665c-0.005,0-0.012,0-0.016,0c-0.005,0-0.012,0-0.016,0c-4.711,0-8.428-3.092-8.86-4.168v-3.181
		c2.785,1.18,5.77,1.83,8.876,1.83s6.091-0.65,8.876-1.83v3.181C205.856,297.572,202.14,300.665,197.428,300.665z M181.306,294.998
		l-0.366-6.668c0.829,0.773,1.697,1.488,2.597,2.143v4.096L181.306,294.998z M173.683,226.925v-3.901h5.997v3.901H173.683z
		 M158.415,226.925l-0.864-3.901h11.132v3.901H158.415z M162.876,270.184c0.719,3.186-1.289,6.363-4.476,7.083
		c-1.545,0.349-3.02-0.131-4.467-0.771c-1.904-0.841-2.639-3.806-2.654-3.857l-2.259-7.692l11.816-3.97L162.876,270.184z
		 M147.612,260.147l-6.431-21.899c-0.033-0.185-0.084-0.363-0.155-0.531l-15.456-52.64c1.759-5.314,2.625-11.813-0.967-20.607
		l10.957-11.377c2.23,4.084,3.027,7.435,3.033,7.461l21.156,95.514L147.612,260.147z M154.583,83.756l4.791-2.305
		c0.031,0.084,0.052,0.172,0.093,0.252l6.795,13.248l-12.535,5.71L154.583,83.756z M159.676,22.787
		c0.107-0.107,0.186-0.172,0.237-0.209c0.349,0.09,1.114,0.504,1.741,0.843c2.599,1.405,6.947,3.755,15.02,3.757
		c0,0,0.001,0,0.002,0c0.002,0,0.003,0,0.004,0c0.002,0,0.004,0,0.004,0c0.002,0,0.002,0,0.002,0
		c8.075-0.002,12.424-2.353,15.022-3.757c0.628-0.339,1.396-0.755,1.743-0.844c0.043,0.029,0.103,0.074,0.171,0.139
		c0.896,1.274,1.638,8.26,1.126,15.268h-36.135C158.102,30.976,158.838,23.996,159.676,22.787z M197.765,42.984v3.124
		c0,2.248-2.061,4.076-4.594,4.076h-5.277c-2.532,0-4.593-1.828-4.593-4.076v-3.124H197.765z M155.598,42.984h14.464v3.124
		c0,2.248-2.061,4.076-4.593,4.076h-5.277c-2.533,0-4.594-1.828-4.594-4.076V42.984z M160.192,55.184h5.277
		c5.289,0,9.593-4.071,9.593-9.076v-3.124h3.239v3.124c0,5.004,4.304,9.076,9.593,9.076h5.277c1.387,0,2.701-0.285,3.893-0.788
		c-3.65,15.902-10.826,19.304-20.383,19.305c-9.557-0.001-16.732-3.402-20.382-19.305C157.491,54.898,158.806,55.184,160.192,55.184
		z M201.494,120.095l5.771,3.655c-1.02,3.443-1.163,7.104-0.354,10.704c0.377,1.679,0.966,3.271,1.707,4.777
		c-1.604,3.371-5.519,13.185-3.622,25.54c0.071,0.466,0.273,0.902,0.582,1.258c0.066,0.076,2.296,2.572,6.559,5.404v46.591h-32.959
		v-8.026l10.464-13.177c0.389-0.49,0.58-1.107,0.536-1.73l-5.984-84.851l4.767-9.288l12.394,4.974c0.3,0.121,0.616,0.18,0.931,0.18
		h0.001c-1.301,0.629-2.45,1.607-3.278,2.915C196.64,112.76,197.756,117.728,201.494,120.095z M227.759,113.425
		c3.087,0,6.105,0.878,8.726,2.538c7.617,4.822,9.89,14.942,5.067,22.559c-3.016,4.762-8.185,7.605-13.829,7.604h-0.001
		c-3.088,0-6.107-0.878-8.729-2.539c-3.689-2.336-6.248-5.969-7.205-10.23c-0.956-4.261-0.197-8.639,2.14-12.328
		C216.943,116.268,222.114,113.425,227.759,113.425z M305.456,206.006c-0.216,4.771-1.574,9.001-9.021,9.001
		c-7.439,0-8.803-4.219-9.02-9.002c0.746-0.314,1.283-0.961,1.463-1.732c2.319,0.96,4.848,1.474,7.557,1.474
		c2.709,0,5.237-0.513,7.557-1.474C304.171,205.045,304.71,205.693,305.456,206.006z M308.137,194.986
		c-0.165,0.15-4.858,5.76-11.702,5.76c-6.844,0-11.537-5.609-11.702-5.76c-4.182-5.202-6.138-13.248-6.138-21.252
		c0-0.519,0.011-1.026,0.022-1.532h12.818c0.943,0,1.806-0.531,2.231-1.373l2.769-5.479l2.768,5.479
		c0.426,0.842,1.288,1.373,2.232,1.373h12.818c0.011,0.506,0.022,1.014,0.022,1.532
		C314.275,181.738,312.319,189.784,308.137,194.986z M216.349,168.341c-0.234-0.222-0.511-0.396-0.817-0.515
		c-2.951-1.914-4.862-3.705-5.702-4.565c-1.085-8.154,0.692-15.08,2.158-19.094c1.266,1.381,2.706,2.617,4.331,3.646
		c0.305,0.193,0.618,0.368,0.931,0.544c-0.002,0.53,0.059,1.12,0.235,1.769c0.818,3.014,3.653,5.835,8.425,8.383
		c3.404,1.818,9.137,2.747,15.209,3.093l1.645,13.003c-0.149-0.005-0.298,0.001-0.444,0.021c-7.985,0.407-14.54-1.067-19.642-3.112
		c-0.27-0.177-0.568-0.3-0.887-0.364C219.718,170.266,217.907,169.298,216.349,168.341z M242.736,144.966l14.594-2.933
		c2.168,3.433,6.23,5.869,9.953,8.101c1.605,0.962,3.145,1.89,4.4,2.814c-0.227,0.299-0.456,0.593-0.676,0.902
		c-2.935,0.206-5.76,0.876-8.399,1.585c-3.607,0.97-25.264,3.24-34.343-1.337c-2.417-1.218-3.862-2.439-4.759-3.402
		c1.382,0.28,2.792,0.43,4.215,0.43h0.002C233.445,151.126,238.788,148.879,242.736,144.966z M238.735,179.608
		c-1.555,3.571-3.02,7.678-4.374,12.27c-0.764,2.591-1.436,5.305-2.045,8.098l-7.138-22.46
		C229.125,178.689,233.655,179.492,238.735,179.608z M244.304,179.451c0.408-0.031,7.27-0.924,10.199-1.635
		c2.287,1.041,4.636,1.97,7.022,2.77c-0.68,4.988-1.025,10.401-1.025,16.244c0,0.759,0.346,1.432,0.88,1.89
		c-14.584-0.199-21.801-1.18-22.099-5.831C240.83,187.691,242.516,183.182,244.304,179.451z M262.359,175.588
		c-0.076-0.026-0.15-0.055-0.227-0.082c0.088-0.031,0.174-0.061,0.261-0.092C262.382,175.472,262.371,175.53,262.359,175.588z
		 M263.723,169.765c-0.778,0.181-1.466,0.379-2.053,0.602c-4.998,1.892-9.641,3.072-13.933,3.717l-1.559-12.324
		c0.284,0.002,0.568,0.006,0.852,0.006c7.074,0,13.744-0.659,16.876-1.502c1.229-0.331,2.497-0.648,3.782-0.906
		C266.104,162.481,264.785,165.957,263.723,169.765z M276.012,148.138c-0.357,0.328-0.693,0.684-1.038,1.029
		c-1.517-1.154-3.28-2.218-5.12-3.321c-4.497-2.697-9.148-5.485-9.097-9.224c0.001-0.087-0.002-0.174-0.011-0.261
		c-0.002-0.027-0.172-2.753,1.428-4.393c1.073-1.1,2.835-1.579,5.202-1.419c0.241,0.022,5.942,0.615,10.343,7.4
		c0.911,1.403,2.847,3.266,5.401,5.249C280.807,144.367,278.384,145.96,276.012,148.138z M267.544,125.558
		c-3.832-0.213-6.846,0.764-8.949,2.92c-2.988,3.063-2.899,7.26-2.839,8.195c-0.001,0.195,0.023,0.38,0.032,0.57l-8.815,1.771
		c3.804-7.907,2.3-17.276-3.48-23.615C249.589,115.303,258.87,117.288,267.544,125.558z M199.581,99.828l-12.424-4.986l6.739-13.138
		c0.041-0.08,0.061-0.168,0.094-0.252l4.742,2.281L199.581,99.828z M176.675,78.7h0.002c0.002,0,0.003,0,0.004,0
		c0.002,0,0.004,0,0.004,0c0.002,0,0.002,0,0.002,0c4.9-0.001,9.027-0.882,12.484-2.732v3.99l-7.018,13.682h-10.944l-7.018-13.682
		v-3.99C167.648,77.818,171.776,78.699,176.675,78.7z M170.224,98.64h12.975l1.1,0.441l-4.176,8.138h-6.882l-4.14-8.067
		L170.224,98.64z M174.043,112.219h5.276l5.801,82.254l-8.439,10.627l-8.438-10.627L174.043,112.219z M184.68,223.024h27.456v3.901
		h-8.432c-2.389-0.526-4.579-0.682-6.292-0.682c-1.713,0-3.903,0.155-6.292,0.682h-6.44V223.024z M197.413,231.244
		c13.327,0,21.269,16.322,22.017,23.955h-22.664l-5.466-8.706l-0.007,0.004c-0.193-0.31-0.451-0.586-0.781-0.793
		c-1.169-0.733-2.712-0.381-3.446,0.788l-5.466,8.706h-6.203C176.69,242.002,184.085,231.244,197.413,231.244z M182.982,260.198
		c0.86,0,1.66-0.442,2.117-1.171l4.083-6.504l4.083,6.504c0.457,0.729,1.257,1.171,2.117,1.171h24.33
		c0.008,0.451,0.017,0.902,0.017,1.364c0,15.761-10.011,28.583-22.316,28.583c-12.306,0-22.316-12.822-22.316-28.583
		c0-0.461,0.009-0.913,0.017-1.364H182.982z M217.129,284.769c4.702-6.035,7.6-14.21,7.6-23.207c0-1.321-0.044-2.577-0.108-3.802
		c0.001-0.021,0.007-0.041,0.007-0.062c0-0.081-0.017-0.157-0.023-0.235c-0.605-10.749-3.577-17.855-7.468-22.514V174.33
		c0.672,0.338,1.369,0.67,2.099,0.994l11.181,35.179c-4.518,30.742-2.021,68.213-0.061,88.305c-2.218-0.948-4.927-1.73-8.243-2.156
		l-4.976-0.958v-10.861C217.136,284.811,217.13,284.79,217.129,284.769z M235.708,302.053c-1.967-18.733-5.134-59.075-0.287-91.316
		c0.018-0.094,0.034-0.187,0.041-0.283c0.57-3.754,1.253-7.393,2.057-10.876c2.621,2.11,6.115,2.77,7.707,3.064
		c6.092,1.127,14.994,1.127,26.265,1.127c2.535,0,4.928,0,7.193-0.013l-7.68,2.665c-14.351,3.349-17.482,17.387-17.608,17.984
		c-0.187,0.88,0.114,1.793,0.787,2.39l0.688,0.609l-18.265,75.456C236.331,302.595,236.032,302.325,235.708,302.053z
		 M316.464,260.71h-40.057l-0.555-4.49h41.165L316.464,260.71z M253.704,308.32h-1.343l18.36-52.866l0.891,7.218
		C269.337,266.592,259.474,284.446,253.704,308.32z M269.236,244.491l-22.629,65.156c-0.031,0.09-0.058,0.182-0.078,0.274
		c-0.38,1.697-2.076,2.768-3.767,2.389c-0.024-0.005-0.049-0.004-0.073-0.009l-2.269-3.95l18.685-77.194l9.676,8.575l0.56,4.533
		C269.305,244.342,269.263,244.412,269.236,244.491z M247.842,336.677c-0.237-3.125-0.383-5.365-0.513-7.564l1.395-0.549
		c0.676-0.266,1.203-0.814,1.443-1.499c0.24-0.686,0.17-1.442-0.191-2.072l-4.514-7.859c2.104-0.54,3.932-1.911,5.037-3.814h2.075
		c-1.816,8.695-3.017,18.07-3.102,27.783L247.842,336.677z M273.991,414.498c0.036,0.226,0.069,0.434,0.104,0.654h-0.104V414.498z
		 M280.498,423.149c-1.639-9.398-8.286-49.213-8.648-78.442h16.618l0.021,78.442H280.498z M293.467,344.707h1.014
		c-0.307,3.519-0.642,7.067-1.011,10.653L293.467,344.707z M254.483,339.707c0.76-35.84,17.538-67.556,21.16-73.997h41.587
		c3.623,6.436,20.399,38.115,21.157,73.997H254.483z M322.151,255.453l0.139,0.399h-0.188L322.151,255.453z M320.066,236.619
		c-0.456,0.404-0.748,0.96-0.823,1.565l-1.608,13.036h-42.399l-1.608-13.036c-0.075-0.604-0.367-1.161-0.823-1.565l-14.13-12.523
		c1.05-3.144,4.485-10.762,13.577-12.83c0.09-0.02,10.273-3.549,10.273-3.549c0.522,5.017,2.91,12.292,13.91,12.292
		c10.988,0,13.383-7.262,13.91-12.292c0,0,10.186,3.53,10.275,3.55c9.096,2.069,12.529,9.692,13.575,12.83L320.066,236.619z
		 M308.919,201.928v-0.626c0.73-0.601,1.426-1.262,2.088-1.974h2.677c-0.091,1.397-0.176,2.783-0.252,4.165L308.919,201.928z
		 M314.603,194.329c2.989-5.375,4.672-12.408,4.672-20.595c0-1.441-0.041-2.849-0.122-4.184l-0.011,0.001
		c-0.079-1.309-1.155-2.349-2.484-2.349h-13.685l-4.307-8.521l-0.007,0.003c-0.233-0.46-0.602-0.857-1.097-1.107
		c-1.236-0.624-2.736-0.129-3.359,1.104l-4.307,8.521h-13.685c-1.329,0-2.405,1.04-2.484,2.349l-0.011-0.001
		c-0.081,1.335-0.122,2.743-0.122,4.184c0,8.187,1.683,15.22,4.672,20.595h-12.746c0.096-5.456,0.521-10.469,1.252-15.064
		c0.012-0.071,0.029-0.142,0.035-0.213c0.361-2.24,1.37-6.611,1.389-6.717c1.478-5.742,6.271-14.701,6.283-14.718
		c1.438-2.146,3.037-4.058,4.815-5.707c8.008-7.422,17.077-6.848,17.148-6.848c0.068,0,8.961-0.654,17.033,6.758
		c8.857,8.131,13.519,22.424,13.872,42.508H314.603z M253.789,59.66v-4.912c4.102-1.093,13.268-4.213,17.702-11.093
		c4.435,6.88,13.602,10,17.703,11.093v4.912c0,13.938-7.941,25.278-17.703,25.278C261.73,84.938,253.789,73.599,253.789,59.66z
		 M241.07,78.439c-7.714-11.369,0.023-31.186,0.102-31.385c0.117-0.294,0.178-0.609,0.178-0.925c0-7.677,2.309-13.792,6.862-18.176
		c8.738-8.413,23.036-7.971,23.182-7.967c0.036,0.002,0.069-0.006,0.105-0.005c0.032,0,0.062,0.007,0.094,0.005
		c0.134-0.007,14.378-0.482,23.156,7.946c4.567,4.386,6.884,10.509,6.884,18.197c0,0.316,0.061,0.631,0.178,0.925
		c0.079,0.199,7.815,20.016,0.102,31.385c-3.35,4.936-9.31,7.645-17.723,8.085v-1.777c6.032-5.448,10.005-14.661,10.005-25.087
		v-6.889h-0.003c0.001-1.178-0.831-2.228-2.03-2.456c-0.182-0.035-18.17-3.589-18.17-15.185c0-1.381-1.119-2.5-2.5-2.5
		c-1.381,0-2.5,1.119-2.5,2.5c0,11.527-17.904,15.134-18.17,15.186c-1.199,0.228-2.03,1.278-2.029,2.456h-0.003v6.889
		c0,10.426,3.973,19.638,10.004,25.086v1.778C250.379,86.084,244.419,83.375,241.07,78.439z M261.875,101.732
		c1.124-0.27,1.917-1.275,1.917-2.431V88.143c2.405,1.16,4.997,1.795,7.698,1.795s5.293-0.635,7.698-1.795v11.157
		c0,1.156,0.793,2.161,1.917,2.431l11.382,2.731c-1.269,6.898-9.374,11.413-20.997,11.413c-11.623,0-19.727-4.514-20.997-11.413
		L261.875,101.732z M243.631,106.11l1.986-0.477c0.355,1.809,1.02,3.493,1.97,5.033c-4.002-0.446-7.371-0.15-9.629,0.369
		c-0.904-0.494-1.838-0.922-2.797-1.278C237.726,108.061,240.555,106.833,243.631,106.11z M228.708,108.458
		c-0.158-0.007-0.318-0.013-0.478-0.017l2.298-6.598c0.855,1.204,1.556,2.407,2.127,3.57
		C231.272,106.31,229.958,107.332,228.708,108.458z M213.045,90.564c6.075,1.576,10.471,4.139,13.673,7.018l-3.985,11.441
		c-5.337,1.278-10.011,4.565-13.029,9.332c-0.155,0.245-0.281,0.502-0.426,0.751l-5.109-3.235c-1.409-0.892-1.83-2.765-0.938-4.174
		c0.892-1.409,2.764-1.831,4.174-0.937c1.165,0.737,2.711,0.392,3.45-0.775c0.738-1.166,0.392-2.711-0.774-3.45
		c-1.927-1.22-4.179-1.509-6.233-0.997c0.619-0.502,0.975-1.262,0.933-2.064l-0.911-17.271
		C203.869,86.203,212.888,90.524,213.045,90.564z M149.769,21.17C151.1,12.855,152.357,5.001,176.681,5
		c24.325,0.001,25.583,7.855,26.914,16.17c2.166,13.53,0.843,20.488-0.83,24.028v-4.714c0-1.381-1.119-2.5-2.5-2.5h-0.513
		c0.386-6.176,0.192-16.01-2.53-18.732c-2.92-2.92-5.674-1.426-7.891-0.229c-2.463,1.331-5.837,3.155-12.65,3.156
		c-6.812-0.001-10.186-1.825-12.65-3.156c-2.216-1.198-4.973-2.687-7.891,0.229c-2.722,2.722-2.915,12.556-2.53,18.732h-0.513
		c-1.381,0-2.5,1.119-2.5,2.5v4.713C148.925,41.657,147.603,34.699,149.769,21.17z M140.319,90.564
		c0.157-0.041,9.132-4.34,9.132-4.34l-0.926,18.29c-0.044,0.872,0.37,1.704,1.092,2.194c0.421,0.287,0.912,0.433,1.405,0.433
		c0.353,0,0.706-0.074,1.036-0.225l12.488-5.688l4.624,9.012l-5.983,84.851c-0.044,0.624,0.147,1.241,0.536,1.73l10.454,13.166
		v8.038h-17.733l-12.972-58.563c-0.036-0.158-0.639-2.736-2.245-6.227v-13.367c0-0.055-0.122-0.773-0.139-0.822l-14.446-41.473
		C129.818,94.731,134.214,92.148,140.319,90.564z M118.505,112.31c0.035-0.368,0.584-5.271,4.321-10.49l13.316,38.23l-0.791,3.999
		c-4.48-5.154-10.171-8.643-16.667-10.17l-4.199-1.007C114.486,132.871,118.498,112.39,118.505,112.31z M88.324,89.024
		c-0.039-1.347-1.137-2.428-2.492-2.428H73.017c3.099-1.569,7.359-4.303,9.902-8.393c2.227,3.094,6.219,6.42,13.305,8.393h-2.735
		c-1.356,0-2.454,1.081-2.493,2.428H88.324z M70.933,91.596h12.398v2.923c0,2.118-1.723,3.841-3.84,3.841h-4.718
		c-2.118,0-3.841-1.723-3.841-3.841V91.596z M95.989,91.596h12.399v2.923c0,2.118-1.723,3.841-3.841,3.841h-4.717
		c-2.118,0-3.842-1.723-3.842-3.841V91.596z M78.724,54.971c0-6.03,4.906-10.937,10.938-10.937c6.03,0,10.936,4.906,10.936,10.937
		c0,1.152-0.202,2.284-0.553,3.367c-3.12-1.386-6.637-2.158-10.383-2.158c-3.746,0-7.264,0.772-10.385,2.159
		C78.926,57.254,78.724,56.122,78.724,54.971z M89.662,61.18c10.496,0,18.719,7.532,18.719,17.147c0,0.026,0.008,4.985,0.008,4.985
		c-22.311-0.79-23.28-12.135-23.311-12.604c-0.047-1.362-1.198-2.459-2.542-2.411c-1.363,0.024-2.456,1.136-2.456,2.5
		c0,5.599-5.463,9.351-9.147,11.245c0,0,0.01-3.681,0.01-3.714C70.943,68.712,79.165,61.18,89.662,61.18z M71.956,102.892
		c0.886,0.299,1.831,0.468,2.817,0.468h4.718c4.874,0,8.84-3.966,8.84-8.841v-0.495h2.657v0.495c0,4.875,3.967,8.841,8.842,8.841
		h4.717c0.986,0,1.932-0.17,2.817-0.468c-2.533,9.413-9.51,16.196-17.703,16.196C81.467,119.088,74.491,112.305,71.956,102.892z
		 M80.044,134.363c1.124-0.27,1.917-1.275,1.917-2.431v-9.42c2.417,1.017,5.005,1.577,7.7,1.577c2.693,0,5.281-0.56,7.696-1.575
		v9.419c0,1.156,0.793,2.161,1.917,2.431l4.915,1.179l-5.865,16.948H80.996l-5.865-16.948L80.044,134.363z M89.661,177.525
		l-6.934-20.035h13.868L89.661,177.525z M40.725,160.571c0.071-0.308,0.859-3.561,3.009-7.506l10.982,11.406
		c-3.356,8.218-2.82,14.432-1.3,19.548l-21.791,76.1l-12.054-4.051L40.725,160.571z M28.036,272.655
		c-0.013,0.045-0.755,3.145-2.65,3.841c-1.485,0.545-2.927,1.119-4.467,0.771c-1.544-0.349-2.859-1.277-3.704-2.615
		c-0.845-1.338-1.118-2.924-0.768-4.478l0.476-2.149c1.666,1.338,2.738,3.388,2.738,5.687c0,1.381,1.119,2.5,2.5,2.5
		c1.381,0,2.5-1.119,2.5-2.5c0-4.72-2.677-8.82-6.589-10.879l0.411-1.856l11.764,3.954L28.036,272.655z M60.944,205.98
		c4.003-6.843,1.673-12.358-0.581-17.691c-2.61-6.179-5.311-12.568-0.417-23.319c0.425-0.933,0.236-2.031-0.475-2.77l-12.944-13.443
		c3.229-4.21,8.09-8.327,15.273-10.016l8.444-2.026l16.916,48.874v59.79H49.107C49.238,239.561,50.62,223.626,60.944,205.98z
		 M87.162,421.04H76.256c-5.159-28.515-8.023-56.004-9.559-75.013h20.464V421.04z M74.245,426.04h12.917v8.761H64.401
		C66.632,426.736,73.309,426.091,74.245,426.04z M114.92,434.801H92.162v-8.761h12.912
		C105.998,426.089,112.687,426.727,114.92,434.801z M103.065,421.04H92.162v-75.013h20.462
		C111.088,365.036,108.224,392.525,103.065,421.04z M122.457,341.027H56.864c-9.597-57.732-8.603-83.596-7.997-90.649h81.594
		C131.075,257.391,132.088,283.091,122.457,341.027z M92.161,245.378v-59.79l16.914-48.874l8.455,2.029
		c6.14,1.443,11.244,4.835,15.226,10.054L119.848,162.2c-0.711,0.739-0.899,1.837-0.475,2.77
		c4.894,10.751,2.193,17.141-0.417,23.319c-2.254,5.333-4.584,10.849-0.581,17.691c10.289,17.584,11.69,33.568,11.831,39.398H92.161
		z M123.432,204.758c-0.245-0.434-0.485-0.867-0.74-1.303c-2.278-3.894-1.61-7.029-0.116-10.828l1.987,6.768L123.432,204.758z
		 M146.461,273.976c0.656,2.81,2.359,5.204,4.803,6.747c1.768,1.117,3.771,1.692,5.812,1.692c0.807,0,1.62-0.09,2.427-0.272
		c5.875-1.326,9.576-7.185,8.253-13.05l-8.232-37.168h21.182c-5.295,4.406-9.729,12.141-10.483,25.538
		c-0.007,0.079-0.023,0.155-0.023,0.235c0,0.021,0.006,0.041,0.007,0.062c-0.064,1.225-0.108,2.48-0.108,3.802
		c0,5.463,1.073,10.622,2.964,15.186l-1.101,20.025c-12.3,1.835-16.007,8.597-16.639,9.984l-10.472,18.235
		c-0.361,0.63-0.432,1.387-0.191,2.072c0.24,0.685,0.768,1.233,1.443,1.499l3.38,1.331l-8.254,22.412v-96.158L146.461,273.976z
		 M161.498,334.628l-11.893,27.091c-0.033,0.077-0.064,0.155-0.089,0.234c-0.192,0.596-1.644,1.12-3.396,0.553
		c-1.751-0.568-2.62-1.845-2.46-2.347l10.474-28.432L161.498,334.628z M141.227,417.471v-52.073c0.918,0.793,2.05,1.442,3.352,1.865
		c1.031,0.334,2.06,0.493,3.044,0.493c3.064,0,5.694-1.542,6.604-4.125l11.928-27.169l0.268,0.105
		c1.184,0.467,2.526-0.03,3.124-1.153l0.323-0.609l-4.544,82.665H141.227z M219.78,367.748v29.204h-17.909l-1.971-19.822h-0.001
		c-0.114-1.162-1.032-2.121-2.239-2.241c-1.363-0.137-2.598,0.866-2.734,2.241l-1.971,19.822h-17.909v-29.204H219.78z
		 M175.39,423.924c-1.994,0.346-3.73,1.102-5.199,2.249v-6.136l1.016-18.48c0.388,0.247,0.846,0.395,1.339,0.395h1.122
		L175.39,423.924z M180.388,423.703l-1.705-21.751h11.322v21.751H180.388z M195.005,422.471h4.814v12.33h-4.814V422.471z
		 M199.82,417.471h-4.814v-15.519h0.213c0.943,0,1.77-0.527,2.194-1.312c0.425,0.785,1.251,1.312,2.194,1.312h0.213V417.471z
		 M132.769,434.801c0.227-2.55,1.001-6.617,3.565-9.333c1.903-2.017,4.474-2.997,7.856-2.997h21v12.33H132.769z M172.658,430.652
		c1.28-1.312,3.053-1.949,5.419-1.949h11.929v6.098h-19.4C170.89,433.477,171.473,431.866,172.658,430.652z M204.82,434.801v-6.098
		h11.929c2.366,0,4.139,0.638,5.419,1.949c1.186,1.214,1.768,2.826,2.053,4.148H204.82z M214.437,423.703h-9.617v-21.751h11.322
		L214.437,423.703z M224.488,323.268c-0.539-1.013-1.698-1.531-2.813-1.253c-1.114,0.277-1.895,1.278-1.895,2.426v38.306h-44.734
		v-38.306c0-1.148-0.781-2.148-1.896-2.426c-1.114-0.279-2.274,0.24-2.813,1.253l-4.16,7.829l-15.551-6.125
		c0,0,9.21-16.063,9.25-16.157c0.1-0.237,2.802-5.626,13.545-7.213c0.053-0.008,11.127-2.137,11.127-2.137
		c2.131,3.187,7.365,6.199,12.85,6.199h0.012h0.006h0.012c5.482,0,10.714-3.01,12.847-6.2l3.853,0.742
		c0.004,0.001,0.009,0.002,0.014,0.003l7.105,1.368c0.053,0.01,0.106,0.019,0.159,0.025c10.975,1.386,14.215,8.428,14.215,8.428
		c0.017,0.031,0.034,0.061,0.053,0.092l8.527,14.851l-15.551,6.125L224.488,323.268z M245.309,361.954
		c-0.025-0.08-0.056-0.158-0.089-0.234l-11.893-27.091l7.364-2.901l10.44,28.338c0.192,0.596-0.677,1.873-2.427,2.44
		C246.952,363.074,245.502,362.549,245.309,361.954z M263.943,434.801h-13.682c5.083-5.308,7.073-11.433,7.814-14.648h10.915v6.721
		C266.447,429.222,264.815,432.269,263.943,434.801z M269.34,434.793c1.316-2.839,4.019-6.632,9.067-6.644h10.081l0.002,6.603
		L269.34,434.793z M293.491,434.801V433.6c0.38,0.407,0.757,0.816,1.151,1.201H293.491z M293.489,425.495l-0.009-31.238
		c2.563-16.591,4.549-32.87,5.925-48.465l-0.023,86.562C297.181,430.436,295.21,428.144,293.489,425.495z M304.381,434.752
		l0.002-6.603h10.079c5.051,0.011,7.753,3.807,9.067,6.644L304.381,434.752z M342.337,434.801h-13.41
		c-1.173-3.405-3.715-7.748-8.009-10.05c0.798-0.163,1.652-0.254,2.585-0.254h18.834V434.801z M345.419,419.497h-24.375v-19.438
		c2.307-16.417,4.764-37.752,4.978-55.352h14.891c1.381,0,2.5-1.119,2.5-2.5c0-39.628-18.893-73.915-22.153-79.535l0.225-1.821
		h2.541l17.474,50.313c0.5,2.06,1.757,3.814,3.552,4.954c1.15,0.73,2.438,1.132,3.758,1.23L345.419,419.497z M363.07,434.801
		v-10.304h18.834c3.058,0,5.365,0.867,7.056,2.649c2.12,2.238,2.829,5.474,3.059,7.655H363.07z M359.988,419.497l-3.523-106.175
		c1.033-1.779,1.363-3.849,0.902-5.908l-1.275-5.27l-0.9-22.331c-0.002-0.048,0.048-2.273-2.361-2.273
		c-2.402,0-2.361,1.23-2.385,1.277l-4.348-17.965h38.266v158.645H359.988z M389.313,174.138c-0.269-1.323-1.542-2.194-2.87-1.966
		c-1.33,0.227-2.241,1.468-2.057,2.805c0.068,0.496,6.457,47.786,0.854,80.875h-40.353l-6.886-28.448l0.685-0.607
		c0.673-0.597,0.974-1.509,0.787-2.389c-0.126-0.598-3.256-14.636-17.606-17.985l-3.521-1.222c0.101-1.939,0.217-3.896,0.347-5.871
		h11.177c1.381,0,2.5-1.119,2.5-2.5c0-22.858-5.219-39.24-15.513-48.691c-4.304-3.952-8.775-5.987-12.454-7.028
		c2.713-3.623,7.444-7.662,15.627-9.727c0.061-0.015,6.533-2.183,6.533-2.183l0.643,14.437c0.036,0.825,0.479,1.579,1.181,2.014
		c0.401,0.249,0.857,0.375,1.316,0.375c0.344,0,0.689-0.071,1.013-0.214l1.593-0.706c1.598,4.872,5.64,10.956,13.579,13.285
		c0.032,0.01,0.06,0.026,0.093,0.035c0.018,0.005,0.036,0.003,0.054,0.007c0.923,0.264,3.794,0.995,6.667,0.995
		c2.873,0,5.746-0.731,6.669-0.995c0.018-0.004,0.036-0.002,0.054-0.007c0.033-0.009,0.06-0.025,0.093-0.035
		c7.939-2.329,11.981-8.412,13.579-13.285l1.593,0.706c0.323,0.144,0.669,0.214,1.013,0.214c0.458,0,0.915-0.126,1.316-0.375
		c0.702-0.435,1.145-1.189,1.181-2.014l0.644-14.437c0,0,6.472,2.167,6.533,2.183c17.96,4.531,19.556,18.364,19.614,18.938
		c0.008,0.09,19.386,96.234,19.386,96.234h-20.338L389.313,174.138z M412.625,266.911l-1.345-6.06h12.517l0.147,1.08
		c-4.307,1.277-7.637,4.848-8.553,9.297C413.343,270.405,412.641,266.98,412.625,266.911z M420.398,271.817
		c0.571-2.119,2.072-3.856,4.04-4.747c-0.121,0.975-0.482,1.913-1.103,2.72C422.586,270.762,421.566,271.454,420.398,271.817z"/>
	<path d="M176.78,68.684c5.286,0,8.977-2.147,8.977-5.223c0-1.381-1.119-2.5-2.5-2.5c-1.175,0-2.161,0.811-2.429,1.903
		c-0.486,0.3-1.873,0.82-4.049,0.82c-2.177,0-3.563-0.52-4.049-0.819c-0.268-1.093-1.254-1.903-2.429-1.903
		c-1.381,0-2.5,1.119-2.5,2.5C167.802,66.537,171.494,68.684,176.78,68.684z"/>
	<path d="M162.927,49.226c0.66,0,1.3-0.26,1.771-0.73c0.46-0.47,0.729-1.11,0.729-1.77c0-0.65-0.27-1.3-0.729-1.76
		c-0.931-0.93-2.61-0.94-3.54,0c-0.46,0.46-0.73,1.1-0.73,1.76c0,0.66,0.271,1.31,0.73,1.77
		C161.627,48.966,162.267,49.226,162.927,49.226z"/>
	<path d="M190.627,49.226c0.66,0,1.3-0.26,1.77-0.73c0.471-0.46,0.73-1.11,0.73-1.77c0-0.65-0.26-1.3-0.73-1.77
		c-0.93-0.92-2.6-0.93-3.529,0c-0.471,0.47-0.74,1.11-0.74,1.77c0,0.66,0.27,1.31,0.74,1.77
		C189.328,48.966,189.977,49.226,190.627,49.226z"/>
</g>
<g>
</g>
<g>
</g>
<g>
</g>
<g>
</g>
<g>
</g>
<g>
</g>
<g>
</g>
<g>
</g>
<g>
</g>
<g>
</g>
<g>
</g>
<g>
</g>
<g>
</g>
<g>
</g>
<g>
</g>
</svg>
