<?xml version="1.0" encoding="iso-8859-1"?>
<!-- Generator: Adobe Illustrator 18.0.0, SVG Export Plug-In . SVG Version: 6.00 Build 0)  -->
<!DOCTYPE svg PUBLIC "-//W3C//DTD SVG 1.1//EN" "http://www.w3.org/Graphics/SVG/1.1/DTD/svg11.dtd">
<svg version="1.1" id="Capa_1" xmlns="http://www.w3.org/2000/svg" xmlns:xlink="http://www.w3.org/1999/xlink" x="0px" y="0px"
	 viewBox="0 0 453.202 453.202" style="enable-background:new 0 0 453.202 453.202;" xml:space="preserve">
<g>
	<path d="M375.421,111.839c0-1.381-1.119-2.5-2.5-2.5c-0.782,0-1.48,0.359-1.938,0.92c-0.695,0.206-2.355,0.496-4.802,0.496
		s-4.107-0.29-4.802-0.496c-0.458-0.562-1.156-0.92-1.938-0.92c-1.381,0-2.5,1.119-2.5,2.5c0,0.969,0,3.916,9.24,3.916
		S375.421,112.808,375.421,111.839z"/>
	<path d="M356.924,80.83h18.514c1.381,0,2.5-1.119,2.5-2.5c0-1.381-1.119-2.5-2.5-2.5h-18.514c-1.381,0-2.5,1.119-2.5,2.5
		C354.424,79.711,355.543,80.83,356.924,80.83z"/>
	<path d="M360.996,72.723h10.369c1.381,0,2.5-1.119,2.5-2.5c0-1.381-1.119-2.5-2.5-2.5h-10.369c-1.381,0-2.5,1.119-2.5,2.5
		C358.496,71.604,359.615,72.723,360.996,72.723z"/>
	<path d="M352.141,97.251c0.66,0,1.3-0.27,1.77-0.74c0.46-0.46,0.73-1.11,0.73-1.76c0-0.66-0.27-1.31-0.73-1.77
		c-0.93-0.93-2.61-0.93-3.54,0c-0.46,0.46-0.73,1.11-0.73,1.77c0,0.65,0.27,1.3,0.73,1.76
		C350.841,96.981,351.481,97.251,352.141,97.251z"/>
	<path d="M380.221,97.251c0.66,0,1.31-0.27,1.77-0.74c0.46-0.46,0.73-1.1,0.73-1.76s-0.27-1.31-0.73-1.77
		c-0.93-0.93-2.61-0.93-3.54,0c-0.46,0.46-0.73,1.11-0.73,1.77s0.27,1.3,0.73,1.76C378.921,96.981,379.561,97.251,380.221,97.251z"
		/>
	<path d="M442.412,268.222l-0.408-3.005l1.376-9.087c0.013-0.082-19.949-99.715-19.949-99.715
		c-0.217-1.873-2.672-17.913-23.26-23.155l-19.523-6.546v-4.159c7.626-4.652,12.41-13.098,12.41-23.382v-0.557
		c1.119-0.614,2.493-1.684,3.616-3.534c2.735-4.506,2.689-11.421-0.138-20.555c-3.224-10.417-11.667-15.983-20.768-13.895
		c-2.814-1.535-6.032-2.359-9.588-2.359c-3.556,0-6.774,0.824-9.588,2.359c-9.098-2.087-17.544,3.479-20.768,13.895
		c-2.827,9.134-2.873,16.05-0.138,20.556c1.123,1.85,2.496,2.919,3.615,3.533v0.557c0,10.284,4.784,18.731,12.412,23.383v4.158
		l-5.611,1.881c-2.7-6.429-9.227-17.383-23.11-20.647l-16.328-3.918v-5.797c10.202-0.479,17.556-3.933,21.869-10.298
		c8.576-12.658,1.817-32.253,0.572-35.575c-0.096-8.885-2.927-16.061-8.418-21.333c-10.002-9.605-25.241-9.385-26.723-9.339
		c-1.536-0.043-16.737-0.245-26.719,9.34c-5.491,5.272-8.322,12.448-8.418,21.333c-1.245,3.322-8.003,22.918,0.573,35.575
		c4.313,6.366,11.667,9.82,21.868,10.298v5.797l-16.316,3.916c-4.947,1.163-8.957,3.284-12.191,5.827
		c-2.052-6.275-7.879-16.96-24.209-21.285l-20.369-9.797v-3.863c3.953-4.189,6.631-10.479,8.307-19.171
		c3.38-1.861,9.891-8.606,6.054-32.577c-1.72-10.738-5.45-20.377-31.845-20.379h-0.001c-0.002,0-0.003,0-0.004,0
		c-0.001,0-0.003,0-0.004,0h-0.001c-26.396,0.003-30.126,9.642-31.845,20.38c-3.837,23.97,2.674,30.715,6.053,32.576
		c1.676,8.692,4.354,14.981,8.307,19.17v3.864l-20.368,9.797c-22.469,5.951-25.066,23.953-25.283,25.923l-4.614,23.522
		c-1.36-0.53-2.794-0.993-4.33-1.354l-16.328-3.918v-10.394c6.624-5.151,11.03-14.198,11.03-24.485c0,0-0.009-16.824-0.01-16.859
		c-0.034-7.108-3.484-13.322-8.928-17.325c0.75-1.876,1.147-3.887,1.147-5.927c0-8.788-7.148-15.937-15.936-15.937
		c-8.788,0-15.938,7.149-15.938,15.937c0,2.04,0.397,4.051,1.148,5.928c-5.436,3.999-8.884,10.201-8.926,17.298
		c-0.003,0.044-0.013,16.885-0.013,16.885c0,10.286,4.406,19.332,11.028,24.483v10.396l-16.316,3.915
		c-19.839,4.664-24.603,24.733-24.798,25.597L13.179,268.166c-0.293-0.021-0.587-0.045-0.886-0.045
		C5.515,268.121,0,273.635,0,280.413v163.588c0,1.381,1.119,2.5,2.5,2.5c1.381,0,2.5-1.119,2.5-2.5V280.413
		c0-3.949,3.157-7.167,7.079-7.282l-0.587,2.652c-0.643,2.846-0.139,5.772,1.419,8.239c1.559,2.467,3.984,4.179,6.83,4.822
		c0.807,0.182,1.62,0.272,2.426,0.272c2.041,0,4.044-0.575,5.813-1.692c2.445-1.544,4.149-3.941,4.805-6.755l23.57-82.121
		c1.705,4.158,2.629,7.451,0.197,11.607c-13.002,22.222-12.628,41.631-12.508,44.292c-0.446,3.029-3.356,27.804,8.163,96.195
		c0.203,1.204,1.245,2.085,2.465,2.085h6.934c1.528,19.04,4.394,46.704,9.575,75.458c-4.783,1.262-11.139,5.441-12.364,15.513
		c-0.086,0.711,0.136,1.424,0.61,1.96c0.475,0.536,1.156,0.842,1.872,0.842h56.572c0.716,0,1.397-0.307,1.872-0.842
		c0.474-0.536,0.696-1.249,0.61-1.96c-1.225-10.072-7.581-14.251-12.364-15.513c5.181-28.754,8.047-56.418,9.575-75.458h6.934
		c1.221,0,2.263-0.881,2.465-2.085c11.524-68.425,8.604-93.19,8.161-96.2c0.063-1.389,0.185-7.263-1.513-15.695l0.502-0.894
		l12.27,42.814c0.566,2.433,1.92,4.552,3.856,6.081v139.276c-1.306,0.706-2.486,1.606-3.528,2.711
		c-5.49,5.816-5.026,15.02-5.003,15.41c0.076,1.323,1.171,2.356,2.496,2.356h37.5c1.381,0,2.5-1.119,2.5-2.5v-17.264l2.912-52.974
		c1.532-0.689,2.723-1.865,3.275-3.433l3.284-7.481l3.511,63.887v17.264c0,1.381,1.119,2.5,2.5,2.5h158.63
		c1.381,0,2.5-1.119,2.5-2.5v-12.804h0.5c1.348,0,2.453-1.069,2.499-2.416l2.329-69.144l2.407,69.146
		c0.047,1.346,1.152,2.413,2.499,2.413h0.5v12.804c0,1.381,1.119,2.5,2.5,2.5h34.042c1.323,0,2.417-1.031,2.496-2.352
		c0.021-0.343,0.443-8.476-4.495-13.715c-0.958-1.017-2.046-1.847-3.25-2.5V267.667c0.145-0.695,0.284-1.396,0.418-2.104
		c0.001-0.004,0.002-0.009,0.003-0.014c2.577-13.654,3.055-29.683,2.685-44.098c0,0,7.389,35.606,7.444,35.688l5.912,8.909
		l1.898,8.55c0.77,5.327,5.458,9.21,10.828,9.21c0.465,0,0.936-0.029,1.409-0.089c2.944-0.373,5.549-1.856,7.336-4.177
		c1.379-1.791,2.124-3.918,2.188-6.122c3.025,0.889,5.24,3.685,5.24,6.993v163.588c0,1.381,1.119,2.5,2.5,2.5
		c1.381,0,2.5-1.119,2.5-2.5V280.413C453.202,274.145,448.482,268.967,442.412,268.222z M422.984,262.552l-2.851-4.296h17.869
		l-0.65,4.296H422.984z M387.389,134.248l-0.544,12.21l-11.127-4.931l4.999-9.517L387.389,134.248z M373.972,159.404l-1.641-6.184
		l4.125-5.896l5.501,2.438C381.211,152.312,379.18,156.935,373.972,159.404z M366.182,161.056c-1.066-0.013-2.062-0.096-2.994-0.237
		l1.48-5.579h3.025l1.481,5.583C368.244,160.961,367.249,161.043,366.182,161.056z M350.418,149.755l5.487-2.431l4.125,5.896
		l-1.635,6.162C353.236,156.908,351.183,152.301,350.418,149.755z M360.651,145.221h11.06l0.088,0.039l-3.484,4.979h-4.268
		l-3.484-4.979L360.651,145.221z M366.181,63.274c11.681,0,16.368,10.934,16.969,21.983h-13.266c-1.282,0-2.326,0.968-2.471,2.211
		h-2.466c-0.145-1.243-1.189-2.211-2.471-2.211h-13.265C349.813,74.208,354.499,63.274,366.181,63.274z M344.302,91.692v-1.435
		h15.675v3.944c0,2.776-2.258,5.035-5.034,5.035h-5.605c-2.776,0-5.035-2.258-5.035-5.035V91.692z M363.533,99.359
		c0.91-1.51,1.443-3.271,1.443-5.158v-1.733h2.407v1.733c0,1.888,0.534,3.649,1.444,5.16v0.848c0,1.46-1.188,2.647-2.647,2.647
		s-2.647-1.188-2.647-2.647V99.359z M372.384,94.201v-3.944h15.675v1.435v2.509c0,2.776-2.258,5.035-5.034,5.035h-5.605
		C374.643,99.236,372.384,96.978,372.384,94.201z M391.76,76.006c2.452,7.922,2.198,12.466,1.298,15.049v-3.298
		c0-1.381-1.119-2.5-2.5-2.5h-2.403c-0.394-8.386-2.772-15.229-6.699-19.922C386.076,66.135,389.878,69.924,391.76,76.006z
		 M340.601,76.006c1.883-6.084,5.684-9.875,10.305-10.673c-3.928,4.694-6.307,11.537-6.7,19.924h-2.404c-1.381,0-2.5,1.119-2.5,2.5
		v3.273C338.485,88.607,338.102,84.081,340.601,76.006z M344.6,103.043c1.412,0.759,3.025,1.192,4.737,1.192h5.605
		c1.517,0,2.951-0.348,4.241-0.953c1.186,2.689,3.874,4.573,6.997,4.573c3.123,0,5.811-1.884,6.997-4.573
		c1.29,0.605,2.724,0.953,4.241,0.953h5.605c1.712,0,3.325-0.433,4.736-1.192c-1.599,11.015-10.011,18.421-21.58,18.421
		C354.611,121.464,346.198,114.058,344.6,103.043z M366.181,126.464c3.381,0,6.561-0.542,9.468-1.552v5.995l-4.892,9.314h-9.151
		l-4.892-9.314v-5.994C359.621,125.922,362.799,126.464,366.181,126.464z M356.644,141.528l-11.127,4.931l-0.544-12.21l6.672-2.237
		L356.644,141.528z M341.346,130.191l-9.155,3.069c-20.588,5.242-23.043,21.282-23.26,23.155l-9.889,49.05
		c-0.842,0.002-1.697,0.003-2.574,0.004v-77.957c12.803-0.668,21.673-6.501,23.372-15.178l1.997,0.479
		C333.35,115.519,338.937,124.608,341.346,130.191z M294.434,272.372l0.654-4.819h12.517l-1.345,6.059
		c-0.016,0.07-1.47,6.179-6.707,5.146c-1.594-0.314-3.033-1.008-4.001-2.266C294.634,275.301,294.237,273.836,294.434,272.372z
		 M309.378,262.552h-14.367l-0.65-4.296h17.869L309.378,262.552z M288.982,256.13l1.376,9.087l-0.88,6.487
		c-0.375,2.8,0.375,5.583,2.111,7.837c1.787,2.321,4.392,3.805,7.335,4.177c0.474,0.06,0.944,0.089,1.41,0.089
		c5.369,0,10.058-3.883,10.828-9.21l1.898-8.55l5.912-8.909c0.054-0.081,7.444-35.688,7.444-35.688
		c-0.37,14.415,0.109,30.444,2.686,44.098c0,0.005,0.001,0.009,0.002,0.014c0.134,0.708,0.273,1.41,0.418,2.104v43.221
		c-0.185,1.694-0.349,3.092-0.475,4.132h-52.483l-0.898-1.562c-0.645-1.416-4.469-8.446-17.392-10.105l-0.623-0.12
		c-0.51-5.443-0.951-10.961-1.298-16.461c2.865-5.311,4.539-11.673,4.539-18.509c0-1.321-0.044-2.577-0.108-3.802
		c0.001-0.021,0.006-0.041,0.006-0.062c0-0.081-0.016-0.157-0.024-0.235c-0.48-8.536-2.452-14.774-5.195-19.312
		c0.514-15.076,2.001-28.009,4.429-38.571c2.62,2.107,6.112,2.767,7.703,3.061c6.092,1.127,14.995,1.127,26.266,1.127
		c1.398,0,2.747,0,4.065-0.002C298.033,210.467,288.969,256.047,288.982,256.13z M307.373,421.853h-10.905V320.02h22.341
		C318.594,329.879,317.14,368.16,307.373,421.853z M280.561,421.853c-4.523-24.864-7.259-46.343-8.915-63.174l5.115,11.652
		c0.909,2.584,3.539,4.125,6.604,4.125c0.984,0,2.014-0.159,3.045-0.493c2.307-0.749,4.082-2.204,5.058-3.945v51.836H280.561z
		 M250.599,430.404h-9.616v-21.751h11.322L250.599,430.404z M211.552,430.625c-2.539,0.44-4.665,1.535-6.345,3.271
		c-1.596,1.65-2.501,3.626-3.022,5.399v-10.125h9.253L211.552,430.625z M216.55,430.404l-1.705-21.751h11.324v21.751H216.55z
		 M231.168,408.652h0.213c0.943,0,1.769-0.527,2.194-1.311c0.426,0.784,1.252,1.311,2.194,1.311h0.213v21.656
		c-1.188-1.663-2.754-3.158-4.814-4.267V408.652z M255.941,403.652h-17.908l-1.971-19.823h-0.001c-0.114-1.162-1.033-2.12-2.24-2.24
		c-1.373-0.13-2.598,0.867-2.735,2.241l-1.969,19.822h-17.91v-29.204h44.734V403.652z M257.837,328.716
		c-1.114,0.278-1.895,1.278-1.895,2.426v38.306h-44.734v-38.306c0-1.148-0.782-2.148-1.896-2.426
		c-1.112-0.277-2.273,0.239-2.812,1.253l-4.16,7.829l-15.55-6.124c0,0,9.209-16.063,9.248-16.157
		c0.1-0.237,2.571-5.827,13.545-7.213c0.054-0.007,11.129-2.137,11.129-2.137c2.13,3.187,7.364,6.199,12.848,6.199h0.012h0.006
		h0.012c5.482,0,10.714-3.01,12.847-6.2c0,0,11.076,2.129,11.129,2.138c11.698,1.952,13.445,6.976,13.53,7.175
		c0.046,0.122,9.265,16.195,9.265,16.195l-15.551,6.124l-4.162-7.829C260.11,328.955,258.947,328.438,257.837,328.716z
		 M190.318,315.485l0.376-6.829l0.31,5.636L190.318,315.485z M187.695,233.626v-3.901h5.997v3.901H187.695z M158.339,233.626
		l-0.864-3.901h25.22v3.901H158.339z M137.316,230.883c-0.025-0.121-0.059-0.238-0.102-0.354l-0.73-2.549
		c-0.033-0.189-0.082-0.372-0.156-0.543l-10.513-36.684c1.528-5.123,2.075-11.346-1.289-19.582l10.985-11.406
		c2.147,3.942,2.935,7.189,3.004,7.49l4.11,18.556c0.001,0.002,0.001,0.005,0.001,0.008l17.056,77l-11.974,4.33L137.316,230.883z
		 M122.615,210.156c-2.442-4.174-1.5-7.477,0.218-11.659l7.858,27.419h-0.685C128.221,220.973,125.831,215.653,122.615,210.156z
		 M150.239,197.058l-2.609-11.78l2.609-13.191V197.058z M168.594,90.457l4.791-2.305c0.032,0.084,6.889,13.499,6.889,13.499
		l-12.536,5.71L168.594,90.457z M173.688,29.488c0.107-0.107,0.187-0.172,0.237-0.209c0.349,0.09,1.115,0.504,1.741,0.843
		c2.599,1.405,6.948,3.755,15.021,3.757c0.001,0,0.001,0,0.001,0c0.002,0,0.003,0,0.005,0c0.002,0,0.003,0,0.004,0
		c0,0,0.001,0,0.002,0c8.074-0.002,12.422-2.352,15.021-3.757c0.628-0.339,1.396-0.755,1.744-0.844
		c0.043,0.029,0.102,0.075,0.171,0.14c0.896,1.273,1.637,8.258,1.126,15.268h-36.136C172.114,37.677,172.85,30.696,173.688,29.488z
		 M211.776,49.685v3.124c0,2.248-2.061,4.076-4.594,4.076h-5.277c-2.532,0-4.592-1.828-4.592-4.076v-3.124H211.776z M169.61,49.685
		h14.464v3.124c0,2.248-2.061,4.076-4.593,4.076h-5.277c-2.533,0-4.594-1.828-4.594-4.076V49.685z M174.204,61.884h5.277
		c5.289,0,9.593-4.071,9.593-9.076v-3.124h3.24v3.124c0,5.004,4.303,9.076,9.592,9.076h5.277c1.386,0,2.702-0.286,3.893-0.788
		c-3.648,15.902-10.825,19.304-20.382,19.305c-9.557-0.001-16.734-3.402-20.382-19.305
		C171.503,61.599,172.817,61.884,174.204,61.884z M213.593,106.528l-12.425-4.986c0,0,6.8-13.306,6.833-13.39l4.743,2.281
		L213.593,106.528z M190.687,85.401c0.001,0,0.001,0,0.001,0c0.002,0,0.003,0,0.005,0c0.002,0,0.003,0,0.004,0c0,0,0.001,0,0.002,0
		c4.899-0.002,9.026-0.882,12.483-2.731v3.99l-7.018,13.682h-10.943l-7.018-13.682v-3.99
		C181.66,84.519,185.788,85.399,190.687,85.401z M184.236,105.341h12.973l1.101,0.442l-4.176,8.137h-6.882l-4.14-8.067
		L184.236,105.341z M188.055,118.92h5.277l5.801,82.254l-8.439,10.627l-8.438-10.627L188.055,118.92z M198.692,229.725h20.157
		l-0.864,3.901h-19.292V229.725z M265.541,178.101l-2.46-12.547c0.574,0.322,1.16,0.606,1.77,0.805l0.691,11.741
		C265.542,178.099,265.541,178.1,265.541,178.101z M259.668,174.136l2.133,10.878c-1.781,3.879-3.443,8.403-4.964,13.564
		c-2.265,7.683-3.942,16.836-5.022,27.337h-4.922l-1.178-5.953L259.668,174.136z M242.73,229.767l3.446,6.134
		c-1.592-0.831-3.193-1.443-4.74-1.882L242.73,229.767z M249.11,230.916h2.246c-0.095,1.161-0.184,2.335-0.265,3.526L249.11,230.916
		z M227.282,233.626h-4.175l0.564-2.55l5.941,2.137C228.864,233.314,228.085,233.449,227.282,233.626z M220.358,242.105
		c0.216-0.119,5.413-4.161,13.216-4.161c1.48,0,4.337,0.35,4.394,0.357c5.535,0.929,9.834,3.693,12.831,8.217
		c0.087,0.183,4.792,6.972,4.792,15.38h-22.663l-5.466-8.706l-0.007,0.004c-0.194-0.31-0.451-0.585-0.781-0.792
		c-1.17-0.733-2.712-0.381-3.447,0.789l-5.464,8.706h-6.204C212.462,252.675,215.434,246.023,220.358,242.105z M247.451,297.173
		c1.554-1.132,3.01-2.445,4.347-3.919c0.225,3.014,0.474,6.009,0.747,8.996l-5.093-0.98V297.173z M211.274,266.899h7.87
		c0.86,0,1.66-0.442,2.118-1.171l4.082-6.504l4.083,6.504c0.458,0.728,1.257,1.171,2.117,1.171h24.329
		c0.008,0.451,0.017,0.902,0.017,1.364c0,6.223-1.565,11.983-4.212,16.682c-0.02,0.033-0.037,0.067-0.056,0.101
		c-4.061,7.144-10.636,11.8-18.048,11.8c-12.305,0-22.316-12.822-22.316-28.583C211.258,267.801,211.266,267.35,211.274,266.899z
		 M233.574,301.846c3.107,0,6.092-0.65,8.877-1.831v3.182c-0.433,1.076-4.149,4.168-8.861,4.168c-0.004,0-0.009,0-0.016,0
		c-0.004,0-0.01,0-0.016,0c-4.71,0-8.426-3.092-8.859-4.168v-3.181C227.484,301.196,230.468,301.846,233.574,301.846z
		 M291.468,363.639l-9.96-27.043l3.379-1.331c0.676-0.266,1.203-0.813,1.443-1.499c0.24-0.686,0.17-1.442-0.191-2.072l-6.704-11.673
		h12.033V363.639z M270.152,341.068l6.702-2.64l10.439,28.338c0.193,0.596-0.676,1.873-2.425,2.44
		c-1.75,0.567-3.203,0.043-3.396-0.552c-0.026-0.08-0.056-0.158-0.089-0.234l-11.077-25.232
		C270.253,342.468,270.201,341.759,270.152,341.068z M293.968,91.639c-9.762,0-17.703-11.34-17.703-25.278v-4.912
		c4.099-1.09,13.266-4.208,17.703-11.093c4.437,6.885,13.604,10.003,17.703,11.093v4.912
		C311.671,80.299,303.729,91.639,293.968,91.639z M263.547,85.14c-7.715-11.368,0.022-31.186,0.101-31.385
		c0.117-0.294,0.178-0.609,0.178-0.925c0-7.676,2.309-13.792,6.862-18.176c8.739-8.414,23.04-7.971,23.182-7.967
		c0.034,0.001,0.066-0.006,0.1-0.006c0.034,0,0.066,0.007,0.1,0.006c0.144-0.001,14.378-0.481,23.155,7.946
		c4.568,4.386,6.884,10.508,6.884,18.197c0,0.317,0.061,0.632,0.178,0.927c0.079,0.199,7.832,19.973,0.108,31.374
		c-3.348,4.941-9.311,7.654-17.729,8.095v-1.776c6.033-5.448,10.006-14.661,10.006-25.088c0,0-0.001-6.899-0.001-6.905
		c-0.001-0.114,0.095-2.225-2.016-2.435c-0.005,0-18.185-3.594-18.185-15.19c0-1.381-1.119-2.5-2.5-2.5c-1.381,0-2.5,1.119-2.5,2.5
		c0,11.527-18.18,15.189-18.186,15.19c-1.991,0.45-2.018,2.446-2.018,2.451v6.889c0,10.426,3.972,19.638,10.004,25.086v1.778
		C272.857,92.785,266.896,90.076,263.547,85.14z M284.352,108.433c1.124-0.27,1.916-1.275,1.916-2.431V94.844
		c2.405,1.16,4.998,1.795,7.699,1.795c2.701,0,5.292-0.635,7.697-1.795v11.157c0,1.156,0.792,2.161,1.917,2.431l11.383,2.731
		c-1.27,6.898-9.374,11.413-20.997,11.413c-11.624,0-19.729-4.514-20.999-11.413L284.352,108.433z M266.108,112.811l1.986-0.477
		c1.699,8.678,10.571,14.51,23.374,15.178v77.956c-19.696-0.027-29.359-0.479-29.711-5.875c2.489-8.35,5.312-14.881,8.395-19.396
		c0.312-0.457,0.464-1.004,0.431-1.557l-0.853-14.491c-0.074-1.253-1.065-2.257-2.317-2.347c-2.479-0.177-4.852-2.7-6.193-6.583
		c-1.719-4.978-1.434-11.854,2.438-15.363c1.023-0.927,1.1-2.508,0.173-3.531c-0.927-1.023-2.508-1.101-3.531-0.173
		c-5.731,5.196-5.99,14.372-3.805,20.7c0.528,1.529,1.198,2.891,1.961,4.106l-21.217,69.686l-12.476-4.489l20.271-91.518
		C245.059,134.522,250.12,116.856,266.108,112.811z M244.549,108.52c2.651,3.704,3.701,7.247,4.095,9.124
		c-6.415,7.148-8.366,15.354-8.49,15.899l-6.093,27.507l-2.829-14.302L244.549,108.52z M231.147,172.089l0.221,1.117l-0.221,0.997
		V172.089z M227.057,97.265c6.104,1.584,10.502,4.167,13.677,7.008l-14.447,41.473c-0.016,0.045-0.139,0.765-0.139,0.822v50.208
		l-6.191,27.949h-26.768v-8.026l10.463-13.177c0.389-0.49,0.58-1.107,0.536-1.73l-5.984-84.851l4.766-9.288l12.395,4.974
		c0.301,0.121,0.617,0.18,0.931,0.18c0.514,0,1.024-0.159,1.455-0.467c0.694-0.497,1.087-1.313,1.042-2.165l-0.911-17.271
		C217.881,92.904,226.9,97.225,227.057,97.265z M163.781,27.871c1.331-8.315,2.588-16.169,26.913-16.17
		c24.324,0.001,25.581,7.855,26.913,16.17c2.165,13.529,0.843,20.487-0.83,24.028v-4.713c0-1.381-1.119-2.5-2.5-2.5h-0.512
		c0.385-6.177,0.192-16.012-2.531-18.732c-2.917-2.917-5.675-1.427-7.89-0.229c-2.463,1.331-5.837,3.155-12.65,3.156
		c-6.813-0.001-10.186-1.825-12.65-3.156c-2.216-1.197-4.973-2.69-7.891,0.229c-2.722,2.722-2.915,12.556-2.53,18.732h-0.513
		c-1.381,0-2.5,1.119-2.5,2.5v4.712C162.938,48.356,161.615,41.398,163.781,27.871z M154.33,97.265
		c0.157-0.041,9.133-4.341,9.133-4.341l-0.926,18.291c-0.044,0.872,0.369,1.704,1.091,2.194c0.421,0.287,0.912,0.433,1.405,0.433
		c0.352,0,0.706-0.074,1.037-0.225l12.488-5.688l4.624,9.012l-5.983,84.851c-0.044,0.624,0.147,1.241,0.536,1.73l10.454,13.166
		v8.038h-31.822l-1.128-5.094v-73.063c0-0.058-0.124-0.777-0.139-0.822l-14.446-41.473
		C143.829,101.432,148.226,98.849,154.33,97.265z M132.517,119.01c0.036-0.368,0.584-5.271,4.321-10.491l13.316,38.23l-5.217,26.374
		l-1.542-6.961c-0.16-0.704-3.456-14.549-15.807-21.954C127.588,144.207,132.509,119.091,132.517,119.01z M132.719,155.457
		L119.771,168.9c-0.711,0.739-0.899,1.837-0.475,2.77c4.894,10.751,2.194,17.141-0.417,23.319
		c-2.254,5.333-4.584,10.849-0.581,17.691c10.288,17.584,11.69,33.568,11.831,39.398H92.084v-59.79l16.914-48.874l8.456,2.029
		C124.632,147.131,129.491,151.248,132.719,155.457z M96.518,164.19l-6.934,20.035l-6.935-20.035H96.518z M88.248,95.725
		c-0.039-1.347-1.137-2.428-2.493-2.428H72.94c3.099-1.569,7.36-4.303,9.903-8.393c2.227,3.094,6.219,6.42,13.304,8.393h-2.735
		c-1.356,0-2.454,1.081-2.493,2.428H88.248z M70.856,98.297h12.398v2.923c0,2.118-1.723,3.841-3.84,3.841h-4.718
		c-2.118,0-3.841-1.723-3.841-3.841V98.297z M95.912,98.297h12.399v2.923c0,2.118-1.723,3.841-3.841,3.841h-4.717
		c-2.118,0-3.842-1.723-3.842-3.841V98.297z M78.647,61.671c0-6.03,4.907-10.937,10.938-10.937c6.03,0,10.936,4.906,10.936,10.937
		c0,1.152-0.202,2.284-0.552,3.367c-3.12-1.386-6.638-2.158-10.383-2.158c-3.747,0-7.264,0.773-10.385,2.159
		C78.85,63.955,78.647,62.823,78.647,61.671z M89.585,67.88c10.497,0,18.719,7.532,18.719,17.147c0,0.026,0.008,4.985,0.008,4.985
		c-22.311-0.79-23.281-12.135-23.31-12.604c-0.048-1.363-1.193-2.467-2.543-2.411c-1.363,0.024-2.455,1.136-2.455,2.5
		c0,5.599-5.463,9.351-9.146,11.245c0,0,0.01-3.681,0.01-3.714C70.866,75.413,79.088,67.88,89.585,67.88z M71.879,109.592
		c0.886,0.299,1.832,0.468,2.818,0.468h4.718c4.874,0,8.84-3.966,8.84-8.841v-0.495h2.657v0.495c0,4.875,3.966,8.841,8.842,8.841
		h4.717c0.986,0,1.932-0.17,2.818-0.468c-2.534,9.413-9.511,16.196-17.704,16.196C81.391,125.789,74.414,119.005,71.879,109.592z
		 M79.968,141.063c1.124-0.27,1.916-1.275,1.916-2.431v-9.42c2.417,1.017,5.005,1.577,7.7,1.577c2.694,0,5.281-0.56,7.696-1.575
		v9.419c0,1.156,0.793,2.161,1.917,2.431l4.915,1.179l-5.865,16.948H80.919l-5.866-16.948L79.968,141.063z M40.648,167.271
		c0.071-0.308,0.859-3.561,3.009-7.506l10.983,11.406c-3.378,8.272-2.812,14.512-1.269,19.647l-21.815,76.004l-12.061-4.053
		L40.648,167.271z M27.959,279.354c-0.013,0.046-0.59,2.566-2.651,3.843c-1.345,0.833-2.924,1.118-4.467,0.77
		c-1.543-0.349-2.859-1.277-3.704-2.615c-0.845-1.338-1.118-2.924-0.767-4.478l0.476-2.149c1.667,1.338,2.739,3.388,2.739,5.687
		c0,1.381,1.119,2.5,2.5,2.5c1.381,0,2.5-1.119,2.5-2.5c0-4.72-2.677-8.82-6.589-10.879l0.411-1.855l11.768,3.955L27.959,279.354z
		 M60.867,212.681c4.003-6.843,1.673-12.358-0.581-17.691c-2.611-6.179-5.311-12.568-0.417-23.319
		c0.425-0.933,0.237-2.031-0.475-2.77L46.45,155.458c3.229-4.211,8.09-8.328,15.274-10.017l8.444-2.026l16.916,48.874v59.79H49.031
		C49.161,246.262,50.542,230.327,60.867,212.681z M87.085,427.741H76.179c-5.159-28.515-8.023-56.004-9.558-75.013h20.463V427.741z
		 M74.167,432.741h12.918v8.761H64.324C66.555,433.436,73.232,432.791,74.167,432.741z M114.844,441.501H92.085v-8.761h12.913
		C105.922,432.79,112.611,433.428,114.844,441.501z M102.989,427.741H92.085v-75.013h20.461
		C111.012,371.737,108.148,399.226,102.989,427.741z M122.381,347.728H89.585H56.787c-9.597-57.732-8.603-83.596-7.998-90.649
		h81.594C130.999,264.091,132.012,289.792,122.381,347.728z M131.868,231.643c-0.07-0.242-0.137-0.482-0.21-0.727h0.467l0.051,0.178
		L131.868,231.643z M149.09,271.966l11.684-4.225l2.025,9.143c0.719,3.186-1.288,6.363-4.475,7.082
		c-1.542,0.347-3.129,0.075-4.467-0.77c-1.338-0.845-2.266-2.16-2.614-3.703C151.233,279.447,149.09,271.966,149.09,271.966z
		 M155.239,424.171V288.957c0.581,0.096,1.168,0.159,1.761,0.159c0.807-0.001,1.62-0.09,2.426-0.272
		c5.875-1.326,9.577-7.185,8.254-13.05l-8.233-37.168h57.42c-5.295,4.406-10.608,9.874-10.608,29.637
		c0,12.293,5.404,23.059,13.441,28.912v4.095l-10.824,2.084c-6.376,0.818-10.53,2.944-13.188,5.059l-2.502-45.518h-0.004
		c-0.069-1.256-1.061-2.288-2.346-2.359c-1.383-0.088-2.558,0.98-2.633,2.359l-3.42,62.235l-3.77,6.565
		c-0.362,0.63-0.432,1.386-0.191,2.072c0.241,0.686,0.767,1.233,1.443,1.499l1.918,0.755l-0.293,5.339l-8.791,23.866
		c-1.136,3.505,1.343,7.343,5.643,8.738c0.447,0.145,0.894,0.251,1.337,0.331l-2.741,49.877H155.239z M146.781,441.501
		c0.226-2.55,1.001-6.617,3.565-9.333c1.903-2.017,4.473-2.997,7.857-2.997h21v12.33H146.781z M185.768,368.42
		c-0.034,0.077-0.063,0.155-0.089,0.234c-0.192,0.595-1.645,1.12-3.395,0.553c-1.751-0.568-2.621-1.845-2.461-2.347l10.474-28.432
		l7.364,2.901L185.768,368.42z M202.316,343.163l0.268,0.105c1.184,0.468,2.527-0.03,3.123-1.153l0.5-0.939v30.773v34.204
		c0,1.381,1.119,2.5,2.5,2.5h1.122l1.217,15.519h-8.995l-3.927-71.458L202.316,343.163z M206.766,441.501
		c0.284-1.315,0.862-2.916,2.034-4.128c1.282-1.325,3.061-1.969,5.438-1.969h11.93v6.098H206.766z M231.168,441.501v-9.163
		c2.466,2.738,3.223,6.672,3.442,9.163H231.168z M240.982,441.501v-6.098h11.928c2.366,0,4.139,0.638,5.419,1.949
		c1.186,1.214,1.768,2.826,2.053,4.148H240.982z M265.408,441.195c-0.366-2.125-1.264-5.022-3.464-7.298
		c-1.68-1.737-3.807-2.832-6.347-3.272l1.723-21.973h1.122c1.381,0,2.5-1.119,2.5-2.5v-34.204v-30.776l0.501,0.943
		c0.596,1.122,1.94,1.619,3.124,1.153l0.268-0.105l0.55,1.253c1.4,18.544,4.351,46.235,10.56,79.981
		C275.637,426.243,273.717,435.478,265.408,441.195z M280.552,426.853h10.916v14.648h-18.731
		C277.821,436.194,279.811,430.068,280.552,426.853z M296.468,441.501v-14.648h10.914c0.741,3.215,2.731,9.341,7.815,14.648H296.468
		z M321.922,440.764c-7.797-5.738-9.633-14.563-9.933-16.367c10.118-54.99,11.604-94.362,11.82-104.377h5.712v107.915
		c-1.204,0.652-2.292,1.482-3.25,2.5C323.278,433.61,322.259,437.841,321.922,440.764z M355.814,441.501h-28.943
		c0.233-2.18,0.941-5.412,3.039-7.638c1.691-1.794,4.004-2.667,7.071-2.667h18.833V441.501z M376.548,441.501v-10.304h18.833
		c3.058,0,5.366,0.867,7.055,2.649c2.121,2.238,2.829,5.474,3.059,7.655H376.548z M373.462,426.197L368.6,286.514l-0.011,0
		c-0.045-1.302-1.081-2.368-2.403-2.412c-1.367-0.043-2.537,1.035-2.583,2.414l-4.705,139.68h-24.376V267.552h63.319v158.645
		H373.462z M402.791,180.838c-0.269-1.322-1.534-2.195-2.87-1.966c-1.331,0.227-2.241,1.468-2.057,2.805
		c0.068,0.496,6.456,47.786,0.854,80.875h-65.074c-5.599-33.077,0.786-80.379,0.854-80.875c0.184-1.337-0.727-2.579-2.057-2.805
		c-1.332-0.227-2.601,0.643-2.87,1.966l-14.726,72.418h-20.339l9.031-44.796c0.002-0.008,0.003-0.015,0.005-0.023l10.311-51.147
		c0.016-0.081,1.694-14.675,19.653-19.206c0.062-0.015,6.533-2.183,6.533-2.183l0.644,14.438c0.037,0.825,0.479,1.579,1.181,2.014
		c0.401,0.249,0.858,0.375,1.316,0.375c0.344,0,0.689-0.071,1.013-0.214l1.592-0.706c1.597,4.872,5.639,10.954,13.576,13.283
		c0.033,0.01,0.061,0.027,0.095,0.036c0.019,0.005,0.037,0.003,0.055,0.007c1.846,0.527,4.559,0.923,6.667,0.923
		c2.109,0,4.821-0.396,6.668-0.923c0.018-0.004,0.037-0.002,0.055-0.007c0.033-0.009,0.062-0.025,0.095-0.036
		c7.938-2.329,11.979-8.412,13.576-13.283l1.592,0.706c0.324,0.144,0.668,0.214,1.013,0.214c0.458,0,0.915-0.126,1.316-0.375
		c0.702-0.435,1.145-1.189,1.181-2.014l0.644-14.438c0,0,6.472,2.168,6.533,2.183c17.959,4.531,19.556,18.364,19.614,18.938
		c0.008,0.09,19.387,96.234,19.387,96.234h-20.339L402.791,180.838z M426.103,273.611l-1.345-6.059h12.517l0.146,1.08
		c-4.306,1.277-7.635,4.849-8.552,9.296C426.641,276.931,426.119,273.681,426.103,273.611z M433.875,278.519
		c0.572-2.119,2.072-3.857,4.04-4.747c-0.121,0.975-0.481,1.913-1.103,2.72C436.064,277.463,435.042,278.155,433.875,278.519z"/>
	<path d="M89.584,118.801c5.44,0,9.24-2.193,9.24-5.333c0-1.381-1.119-2.5-2.5-2.5c-1.189,0-2.185,0.831-2.438,1.943
		c-0.493,0.32-1.959,0.89-4.303,0.89s-3.81-0.57-4.303-0.89c-0.253-1.112-1.249-1.943-2.438-1.943c-1.381,0-2.5,1.119-2.5,2.5
		C80.344,116.608,84.144,118.801,89.584,118.801z"/>
	<path d="M77.061,104.181c0.65,0,1.3-0.27,1.76-0.74c0.47-0.46,0.73-1.1,0.73-1.76c0-0.66-0.26-1.31-0.73-1.77
		c-0.93-0.93-2.6-0.93-3.53,0c-0.47,0.46-0.74,1.11-0.74,1.77c0,0.65,0.27,1.3,0.74,1.76
		C75.751,103.911,76.401,104.181,77.061,104.181z"/>
	<path d="M102.111,104.181c0.66,0,1.3-0.27,1.77-0.73c0.46-0.47,0.73-1.12,0.73-1.77c0-0.66-0.27-1.3-0.73-1.77
		c-0.93-0.93-2.6-0.93-3.54,0c-0.46,0.47-0.73,1.11-0.73,1.77c0,0.65,0.27,1.3,0.73,1.77
		C100.811,103.911,101.451,104.181,102.111,104.181z"/>
	<path d="M224.875,286.047c0.001,1.011,0.448,2.879,3.421,4.024c1.443,0.556,3.305,0.861,5.248,0.861c0.014,0,0.028,0,0.042,0
		c4.329-0.009,8.695-1.534,8.69-4.92c-0.002-1.379-1.121-2.496-2.5-2.496c-0.001,0-0.002,0-0.004,0
		c-1.108,0.001-2.047,0.725-2.373,1.724c-0.527,0.279-1.85,0.688-3.824,0.692c-0.011,0-0.021,0-0.033,0
		c-1.954,0-3.267-0.4-3.792-0.675c-0.33-0.996-1.268-1.715-2.374-1.715c-0.001,0-0.002,0-0.004,0
		C225.991,283.545,224.873,284.666,224.875,286.047z"/>
	<path d="M223.271,275.641c0.66,0,1.3-0.27,1.77-0.73c0.46-0.47,0.73-1.11,0.73-1.77c0-0.66-0.27-1.3-0.73-1.77
		c-0.94-0.93-2.61-0.93-3.54,0c-0.46,0.47-0.73,1.11-0.73,1.77c0,0.66,0.27,1.3,0.73,1.77
		C221.971,275.371,222.611,275.641,223.271,275.641z"/>
	<path d="M243.881,275.601c0.66,0,1.3-0.27,1.77-0.74c0.46-0.46,0.73-1.11,0.73-1.76c0-0.66-0.27-1.31-0.73-1.77
		c-0.93-0.93-2.61-0.93-3.54,0c-0.46,0.46-0.73,1.11-0.73,1.77c0,0.66,0.27,1.3,0.73,1.76
		C242.581,275.331,243.221,275.601,243.881,275.601z"/>
	<path d="M300.708,76.92c-1.189,0-2.184,0.831-2.438,1.943c-0.493,0.32-1.959,0.89-4.303,0.89c-2.343,0-3.81-0.57-4.303-0.89
		c-0.253-1.112-1.249-1.943-2.438-1.943c-1.381,0-2.5,1.119-2.5,2.5c0,3.14,3.8,5.333,9.24,5.333s9.24-2.193,9.24-5.333
		C303.208,78.04,302.089,76.92,300.708,76.92z"/>
	<path d="M286.021,67.401c0-0.66-0.27-1.3-0.73-1.77c-0.93-0.93-2.6-0.93-3.54,0c-0.46,0.47-0.73,1.11-0.73,1.77
		c0,0.66,0.27,1.3,0.73,1.77c0.47,0.46,1.12,0.73,1.77,0.73c0.66,0,1.3-0.27,1.77-0.73
		C285.751,68.701,286.021,68.061,286.021,67.401z"/>
	<path d="M304.411,69.901c0.66,0,1.3-0.27,1.77-0.73c0.46-0.47,0.73-1.11,0.73-1.77c0-0.66-0.27-1.3-0.73-1.77
		c-0.94-0.93-2.61-0.93-3.54,0c-0.46,0.47-0.73,1.11-0.73,1.77c0,0.66,0.27,1.3,0.73,1.77
		C303.111,69.631,303.751,69.901,304.411,69.901z"/>
	<path d="M190.694,75.239c5.286,0,8.977-2.147,8.977-5.223c0-1.381-1.119-2.5-2.5-2.5c-1.175,0-2.161,0.811-2.428,1.903
		c-0.486,0.3-1.873,0.82-4.049,0.82c-2.176,0-3.563-0.52-4.049-0.819c-0.268-1.093-1.253-1.903-2.428-1.903
		c-1.381,0-2.5,1.119-2.5,2.5C181.716,73.092,185.408,75.239,190.694,75.239z"/>
	<path d="M176.841,55.781c0.66,0,1.3-0.26,1.77-0.73c0.46-0.46,0.73-1.11,0.73-1.77c0-0.66-0.27-1.3-0.73-1.76
		c-0.93-0.93-2.6-0.94-3.54,0c-0.46,0.46-0.73,1.1-0.73,1.76c0,0.66,0.27,1.31,0.73,1.77
		C175.541,55.521,176.181,55.781,176.841,55.781z"/>
	<path d="M204.541,55.781c0.66,0,1.31-0.26,1.77-0.73c0.47-0.46,0.73-1.11,0.73-1.77c0-0.66-0.26-1.3-0.73-1.76
		c-0.92-0.93-2.6-0.94-3.53,0c-0.47,0.46-0.73,1.1-0.73,1.76c0,0.66,0.26,1.31,0.73,1.77
		C203.241,55.521,203.891,55.781,204.541,55.781z"/>
</g>
<g>
</g>
<g>
</g>
<g>
</g>
<g>
</g>
<g>
</g>
<g>
</g>
<g>
</g>
<g>
</g>
<g>
</g>
<g>
</g>
<g>
</g>
<g>
</g>
<g>
</g>
<g>
</g>
<g>
</g>
</svg>
