<?xml version="1.0" encoding="iso-8859-1"?>
<!-- Generator: Adobe Illustrator 18.0.0, SVG Export Plug-In . SVG Version: 6.00 Build 0)  -->
<!DOCTYPE svg PUBLIC "-//W3C//DTD SVG 1.1//EN" "http://www.w3.org/Graphics/SVG/1.1/DTD/svg11.dtd">
<svg version="1.1" id="Capa_1" xmlns="http://www.w3.org/2000/svg" xmlns:xlink="http://www.w3.org/1999/xlink" x="0px" y="0px"
	 viewBox="0 0 439.801 439.801" style="enable-background:new 0 0 439.801 439.801;" xml:space="preserve">
<g>
	<path d="M274.144,195.361c-4.989,0-8.345-1.911-8.354-4.761c-0.004-1.381,1.111-2.503,2.492-2.508c0.003,0,0.005,0,0.008,0
		c1.087,0,2.013,0.694,2.357,1.664c0.508,0.25,1.723,0.605,3.5,0.605c0.011,0,0.021,0,0.03,0c1.793-0.004,3.017-0.366,3.526-0.62
		c0.34-0.972,1.264-1.671,2.353-1.674c0.003,0,0.005,0,0.008,0c1.377,0,2.496,1.114,2.5,2.492c0.003,0.993-0.423,2.827-3.312,3.954
		c-1.393,0.543-3.19,0.844-5.064,0.848C274.174,195.361,274.159,195.361,274.144,195.361z"/>
	<path d="M264.39,180.84c-0.65,0-1.301-0.26-1.761-0.73c-0.47-0.46-0.739-1.11-0.739-1.77c0-0.66,0.27-1.3,0.739-1.76
		c0.92-0.93,2.601-0.94,3.53,0c0.47,0.46,0.74,1.1,0.74,1.76c0,0.66-0.271,1.3-0.74,1.77C265.7,180.58,265.05,180.84,264.39,180.84z
		"/>
	<path d="M283.96,180.8c-0.66,0-1.3-0.27-1.77-0.73c-0.46-0.47-0.73-1.11-0.73-1.77s0.271-1.3,0.73-1.77c0.93-0.93,2.6-0.93,3.54,0
		c0.46,0.47,0.729,1.11,0.729,1.77s-0.27,1.3-0.729,1.77C285.26,180.53,284.62,180.8,283.96,180.8z"/>
	<path d="M189.151,68.539c-5.286,0-8.978-2.147-8.978-5.223c0-1.381,1.119-2.5,2.5-2.5c1.175,0,2.161,0.811,2.429,1.903
		c0.486,0.299,1.872,0.819,4.049,0.819c2.176,0,3.563-0.52,4.049-0.82c0.268-1.092,1.254-1.903,2.429-1.903
		c1.381,0,2.5,1.119,2.5,2.5C198.129,66.391,194.437,68.539,189.151,68.539z"/>
	<path d="M175.3,49.08c-0.659,0-1.3-0.26-1.77-0.73c-0.47-0.46-0.73-1.11-0.73-1.77c0-0.65,0.261-1.3,0.73-1.76
		c0.93-0.93,2.6-0.93,3.54,0c0.46,0.46,0.73,1.1,0.73,1.76c0,0.66-0.27,1.31-0.739,1.77C176.6,48.82,175.96,49.08,175.3,49.08z"/>
	<path d="M203,49.08c-0.66,0-1.3-0.26-1.77-0.73c-0.46-0.46-0.73-1.11-0.73-1.77c0-0.66,0.271-1.3,0.74-1.76
		c0.92-0.93,2.6-0.93,3.53,0c0.47,0.46,0.729,1.1,0.729,1.76c0,0.66-0.26,1.3-0.729,1.77C204.31,48.82,203.66,49.08,203,49.08z"/>
	<path d="M335.121,307.44l-13.423-60.997c0.65-0.619,0.936-1.548,0.699-2.444l-5.195-19.687c-0.275-1.226-3.602-14.65-17.592-17.915
		l-12.948-4.494v-0.102c8.084-5.442,13.578-15.993,13.578-28.092c0-30.379-18.226-33.659-26.063-33.659
		c-3.774,0-9.958,0.771-15.355,4.957l-6.53-33.297c-0.218-1.97-2.814-19.972-25.283-25.923L206.64,75.99v-3.863
		c3.953-4.189,6.632-10.478,8.308-19.171c3.379-1.86,9.891-8.606,6.054-32.577C219.282,9.642,215.553,0.002,189.156,0h-0.01h-0.001
		c-26.397,0.002-30.126,9.642-31.845,20.38c-3.837,23.97,2.674,30.715,6.053,32.576c1.676,8.693,4.355,14.982,8.308,19.171v3.863
		l-20.368,9.797c-22.469,5.951-25.065,23.953-25.283,25.923c0,0-21.538,109.988-21.518,110.221l1.099,12.674l-1.009,7.644
		c-0.406,3.125,0.429,6.222,2.352,8.719c1.923,2.498,4.703,4.097,7.828,4.503c0.518,0.067,1.033,0.101,1.547,0.101
		c2.587,0,5.089-0.847,7.173-2.452c2.469-1.9,4.059-4.638,4.489-7.719l2.124-9.841l7.09-12.621
		c0.13-0.23,11.512-57.552,11.512-57.552v253.937c-1.306,0.705-2.485,1.606-3.528,2.711c-5.49,5.816-5.026,15.021-5.004,15.41
		c0.076,1.323,1.171,2.356,2.496,2.356h37.5c1.381,0,2.5-1.119,2.5-2.5v-17.264l6.491-118.082l6.491,118.082v17.264
		c0,1.381,1.119,2.5,2.5,2.5h37.5c1.325,0,2.42-1.033,2.496-2.356c0.022-0.389,0.486-9.594-5.004-15.41
		c-1.043-1.105-2.224-2.006-3.529-2.711V309.507l15.86-52.378c0.243-0.017,1.012-0.272,1.146-0.356l0.91,48.697l-6.048,56.855
		c-0.074,0.705,0.153,1.409,0.627,1.936c0.475,0.527,1.15,0.828,1.859,0.828h3.333l3.023,58.281
		c-2.259,0.441-4.163,1.476-5.684,3.093c-3.922,4.173-3.579,10.71-3.563,10.986c0.078,1.321,1.172,2.351,2.495,2.351h25.168
		c0.663,0,1.299-0.264,1.769-0.732c0.469-0.469,0.731-1.105,0.731-1.769l-0.004-11.674v0v-0.001l-0.021-60.581
		c1.076-0.207,1.916-1.107,2.015-2.237l0.963-11.014l0.971,11.015c0.099,1.12,0.926,2.011,1.989,2.228l-0.021,60.588v0.001v0
		l-0.004,11.674c0,0.663,0.263,1.299,0.731,1.769c0.47,0.469,1.105,0.732,1.769,0.732h25.166c1.322,0,2.417-1.03,2.495-2.351
		c0.017-0.276,0.36-6.814-3.563-10.987c-1.52-1.617-3.423-2.652-5.682-3.093l3.022-58.281h3.333c0.709,0,1.385-0.301,1.859-0.828
		c0.474-0.527,0.701-1.231,0.627-1.936l-6.048-56.855l0.91-48.698c0.135,0.084,0.904,0.34,1.146,0.356l16.34,53.959
		c0.491,2.083,1.754,3.858,3.564,5.007c1.323,0.839,2.824,1.272,4.353,1.272c0.597,0,1.198-0.066,1.795-0.199
		c2.125-0.475,3.939-1.749,5.105-3.588C335.214,311.74,335.595,309.557,335.121,307.44z M295.24,173.711
		c0,14.895-9.448,27.012-21.063,27.012c-11.613,0-21.06-12.117-21.06-27.012c0-0.396,0.008-0.781,0.015-1.169h7.345
		c0.86,0,1.66-0.442,2.117-1.171l3.77-6.004l3.77,6.004c0.457,0.729,1.257,1.171,2.117,1.171h22.976
		C295.232,172.93,295.24,173.315,295.24,173.711z M282.73,205.726c-1.202,1.841-4.45,3.471-8.516,3.471
		c-0.011,0-0.021-0.001-0.037,0h-0.005c-2.531,0.025-4.988-0.644-6.763-1.783c-0.795-0.509-1.396-1.088-1.786-1.687
		c0.478-0.335,0.82-0.828,0.976-1.39c2.399,0.898,4.942,1.385,7.578,1.385c2.636,0,5.179-0.487,7.578-1.384
		C281.91,204.899,282.253,205.392,282.73,205.726z M274.178,145.051c12.179,0,19.278,7.747,20.765,22.491h-21.31l-5.152-8.206
		l-0.007,0.004c-0.193-0.309-0.451-0.585-0.781-0.792c-1.168-0.733-2.712-0.383-3.446,0.788l-5.152,8.206h-5.679
		C254.901,152.798,262,145.051,274.178,145.051z M247.326,112.299c0.008,0.087,0.021,0.175,0.037,0.261l7.215,36.784
		c-3.763,5.022-6.461,12.685-6.461,24.366c0,12.099,5.493,22.649,13.576,28.091v0.103l-12.946,4.494
		c-2.069,0.483-3.9,1.192-5.527,2.047l-13.53-68.396l13.317-38.231C246.743,107.037,247.291,111.937,247.326,112.299z
		 M238.739,211.562c-5.718,5.134-7.394,11.897-7.586,12.751l-1.548,5.865v-64.79L238.739,211.562z M214.753,106.106
		c0.514,0,1.023-0.159,1.454-0.467c0.694-0.497,1.087-1.313,1.042-2.165l-0.911-17.271c0,0,9.02,4.321,9.177,4.361
		c6.104,1.584,10.502,4.167,13.676,7.008l-14.446,41.473c-0.017,0.049-0.021,0.099-0.035,0.148c-0.025,0.09-0.051,0.18-0.065,0.274
		c-0.014,0.08-0.018,0.159-0.023,0.239c-0.003,0.054-0.015,0.106-0.015,0.161v78.157h-32.959v-8.026l10.464-13.177
		c0.389-0.49,0.58-1.107,0.536-1.73l-5.984-84.851l4.767-9.288l12.394,4.974C214.122,106.047,214.438,106.106,214.753,106.106z
		 M224.605,223.024v3.901h-27.456v-3.901H224.605z M182.693,98.64h12.974l1.101,0.442l-4.176,8.137h-6.882l-4.14-8.067
		L182.693,98.64z M176.661,79.959v-3.99c3.457,1.85,7.584,2.73,12.483,2.732c0.001,0,0.001,0,0.001,0h0.01c0,0,0.001,0,0.002,0
		c4.9-0.002,9.027-0.882,12.483-2.732v3.99l-7.018,13.682h-10.944L176.661,79.959z M186.513,112.219h5.276l5.801,82.254
		l-8.439,10.627l-8.438-10.627L186.513,112.219z M192.149,223.024v3.901h-5.997v-3.901H192.149z M211.201,83.732l0.849,16.095
		l-12.424-4.986l6.739-13.138c0.041-0.08,0.062-0.168,0.094-0.252L211.201,83.732z M210.234,46.108c0,2.248-2.061,4.076-4.594,4.076
		h-5.277c-2.532,0-4.593-1.828-4.593-4.076v-3.124h14.464V46.108z M171.084,37.984c-0.513-7.008,0.224-13.989,1.062-15.197
		c0.107-0.107,0.186-0.172,0.237-0.209c0.349,0.09,1.114,0.504,1.741,0.843c2.599,1.405,6.947,3.755,15.02,3.757
		c0.001,0,0.001,0,0.001,0h0.01c0,0,0.001,0,0.002,0c8.074-0.002,12.423-2.352,15.021-3.757c0.628-0.339,1.397-0.755,1.743-0.844
		c0.043,0.029,0.102,0.074,0.171,0.139c0.896,1.274,1.638,8.26,1.125,15.268H171.084z M165.567,37.984c-1.381,0-2.5,1.119-2.5,2.5
		v4.713c-1.673-3.541-2.995-10.499-0.829-24.027c1.331-8.315,2.588-16.169,26.913-16.17c24.324,0.001,25.582,7.855,26.913,16.17
		c2.166,13.53,0.843,20.488-0.83,24.028v-4.714c0-1.381-1.119-2.5-2.5-2.5h-0.513c0.386-6.176,0.192-16.01-2.53-18.732
		c-2.919-2.92-5.675-1.427-7.891-0.229c-2.464,1.331-5.837,3.155-12.649,3.156c-6.813-0.001-10.188-1.825-12.65-3.156
		c-2.216-1.197-4.974-2.687-7.891,0.229c-2.723,2.722-2.915,12.556-2.53,18.732H165.567z M168.067,42.984h14.464v3.124
		c0,2.248-2.061,4.076-4.593,4.076h-5.277c-2.533,0-4.594-1.828-4.594-4.076V42.984z M168.768,54.396
		c1.191,0.503,2.506,0.788,3.893,0.788h5.277c5.289,0,9.593-4.071,9.593-9.076v-3.124h3.239v3.124c0,5.004,4.304,9.076,9.593,9.076
		h5.277c1.386,0,2.701-0.286,3.893-0.788c-3.648,15.902-10.826,19.304-20.382,19.305C179.595,73.699,172.418,70.298,168.768,54.396z
		 M167.052,83.756l4.791-2.305c0.032,0.084,0.053,0.172,0.094,0.252l6.795,13.248l-12.535,5.71L167.052,83.756z M123.062,244.442
		c-0.015,0.068-0.026,0.137-0.036,0.206c-0.233,1.801-1.155,3.403-2.595,4.511c-1.439,1.108-3.226,1.587-5.025,1.355
		c-1.801-0.234-3.402-1.156-4.511-2.595c-1.107-1.439-1.589-3.224-1.355-5.02l0.757-5.735h14.337L123.062,244.442z M126.268,232.164
		h-15.87l-0.689-7.949h21.024L126.268,232.164z M132.951,219.215H110.02l20.918-106.655c0.016-0.08,0.028-0.17,0.036-0.25
		c0.036-0.368,0.585-5.271,4.321-10.491l13.316,38.23L132.951,219.215z M139.112,97.572c3.175-2.841,7.572-5.424,13.676-7.008
		c0.157-0.041,9.132-4.34,9.132-4.34l-0.926,18.29c-0.044,0.872,0.37,1.704,1.092,2.194c0.421,0.287,0.912,0.433,1.405,0.433
		c0.353,0,0.706-0.074,1.036-0.225l12.487-5.689l4.625,9.013l-5.983,84.851c-0.044,0.624,0.147,1.241,0.536,1.73l10.454,13.165
		v8.038h-32.95v-78.157c0-0.055-0.012-0.107-0.016-0.161c-0.005-0.08-0.009-0.159-0.023-0.239c-0.015-0.094-0.04-0.184-0.065-0.274
		c-0.014-0.049-0.018-0.099-0.035-0.147L139.112,97.572z M181.152,223.024v3.901h-27.456v-3.901H181.152z M177.66,434.801h-32.422
		c0.227-2.55,1.001-6.617,3.565-9.333c1.903-2.017,4.474-2.997,7.857-2.997h21V434.801z M191.642,256.193
		c-0.075-1.378-1.225-2.436-2.634-2.359c-1.285,0.071-2.277,1.103-2.346,2.359h-0.004l-8.865,161.277h-24.098V231.925h70.909v23.844
		l-11.369,51.662c-0.475,2.126-0.095,4.309,1.072,6.148c1.167,1.839,2.98,3.113,5.104,3.587c0.598,0.133,1.198,0.199,1.796,0.199
		c1.172,0,2.325-0.259,3.396-0.755v100.86h-24.097L191.642,256.193z M233.071,434.801h-32.429v-12.33h21
		c3.374,0,5.939,0.975,7.841,2.98C232.077,428.187,232.849,432.252,233.071,434.801z M224.317,309.719
		c-0.018,0.059-0.034,0.119-0.047,0.18c-0.184,0.821-0.677,1.522-1.388,1.974c-0.713,0.452-1.558,0.598-2.379,0.414
		s-1.522-0.676-1.974-1.387c-0.451-0.711-0.599-1.555-0.413-2.385l13.054-59.318l9.73,5.756L224.317,309.719z M243.872,250.9
		l-12.598-7.452l4.727-17.909c0.011-0.04,0.02-0.08,0.028-0.12c0.011-0.053,0.551-2.458,2.204-5.308l7.998,23.431L243.872,250.9z
		 M246.206,434.801c0.224-1.549,0.77-3.538,2.085-4.927c1.109-1.172,2.631-1.744,4.652-1.749h13.288l0.002,6.675H246.206z
		 M252.302,365.09h13.908l0.02,58.036h-10.918L252.302,365.09z M300.065,429.874c1.315,1.39,1.861,3.379,2.084,4.927h-20.025
		l0.002-6.675h13.288C297.434,428.13,298.956,428.702,300.065,429.874z M282.128,423.126l0.02-58.036h13.906l-3.008,58.036H282.128z
		 M279.937,360.09l-3.27-37.105l-0.006,0c-0.103-1.187-1.04-2.165-2.267-2.272c-1.366-0.118-2.589,0.897-2.708,2.273l-3.244,37.104
		h-21.702l5.533-52.011h43.807l5.533,52.011H279.937z M297.124,242.711c-0.014,0.039-0.017,0.08-0.027,0.12
		c-0.028,0.096-0.053,0.191-0.068,0.291c-0.012,0.069-0.018,0.138-0.022,0.207c-0.004,0.048-0.015,0.094-0.016,0.143l-1.114,59.607
		h-43.396l-1.114-59.607c-0.001-0.05-0.013-0.097-0.016-0.146c-0.006-0.067-0.012-0.134-0.022-0.202
		c-0.016-0.101-0.04-0.197-0.068-0.294c-0.011-0.04-0.014-0.08-0.027-0.119l-9.303-27.25c2.001-1.844,4.629-3.438,8.066-4.219
		c0.09-0.02,10.895-3.765,10.895-3.765c0.761,1.582,2.06,3.018,3.822,4.147c2.59,1.66,5.937,2.573,9.43,2.573h0.074
		c6.129,0,11.341-2.815,13.243-6.724c0,0,10.815,3.749,10.905,3.769c3.444,0.784,6.073,2.365,8.071,4.197L297.124,242.711z
		 M302.124,243.543l8.01-23.46c1.602,2.769,2.146,5.128,2.192,5.336c0.008,0.04,0.018,0.08,0.028,0.12l4.727,17.909l-12.597,7.452
		L302.124,243.543z M329.825,310.9c-0.451,0.711-1.151,1.203-1.975,1.387c-0.819,0.182-1.666,0.037-2.377-0.415
		c-0.712-0.451-1.204-1.152-1.387-1.973c-0.014-0.06-0.029-0.121-0.048-0.18l-16.584-54.767l9.73-5.757l13.055,59.328
		C330.424,309.345,330.276,310.19,329.825,310.9z"/>
</g>
<g>
</g>
<g>
</g>
<g>
</g>
<g>
</g>
<g>
</g>
<g>
</g>
<g>
</g>
<g>
</g>
<g>
</g>
<g>
</g>
<g>
</g>
<g>
</g>
<g>
</g>
<g>
</g>
<g>
</g>
</svg>
