<?xml version="1.0" encoding="utf-8"?>
<!-- Generator: Adobe Illustrator 23.0.1, SVG Export Plug-In . SVG Version: 6.00 Build 0)  -->
<svg version="1.1" id="Layer_1" xmlns="http://www.w3.org/2000/svg" xmlns:xlink="http://www.w3.org/1999/xlink" x="0px" y="0px"
	 viewBox="0 0 52.9 67.1" style="enable-background:new 0 0 52.9 67.1;" xml:space="preserve">
<g>
	<path d="M42.4,10.2C42.4,10.2,42.4,10.1,42.4,10.2c0-0.6-0.3-1.2-0.8-1.5c-2-1.3-5.1-2.8-8.6-2.8c-1.4,0-2.7,0.2-3.9,0.7V2.8
		C29.1,1.2,28,0,26.6,0h-2.2c-1.4,0-2.5,1.2-2.5,2.8v4.1c-0.8-0.1-1.9-0.3-3.2-0.3c-3.1,0-6,0.8-8.5,2.3c-0.6,0.4-1,1.1-0.8,1.9
		c0,0.1,0.1,0.2,0.1,0.4c-0.1,0-0.2,0.1-0.3,0.1c-0.2,0.1-0.5,0.2-0.7,0.3C3.2,16.1,0,22.7,0,29.5c0,13.3,11.9,24.2,26.5,24.2
		s26.5-10.9,26.5-24.2C52.9,21.8,49.1,14.8,42.4,10.2z M18.7,8.6c1.4,0,2.5,0.2,3.2,0.3c1,0.2,2-0.6,2-1.6V2.8
		c0-0.4,0.3-0.8,0.5-0.8h2.2c0.2,0,0.5,0.3,0.5,0.8V7c0,0.5,0.2,0.9,0.5,1.2c0.5,0.5,1.2,0.6,1.9,0.3c1.1-0.5,2.3-0.8,3.6-0.8
		c2.4,0,4.7,0.9,6.4,1.9c0,0-0.1,0-0.2,0c0,0-0.1,0-0.1,0c-0.1,0-0.2,0-0.3,0c-2.1,0-3.8,0.2-5.1,0.5c-0.7,0.2-1.2,0.7-1.2,1.4
		c-0.1,0.7,0.2,1.4,0.8,1.7c2.5,1.5,3.5,3.3,4,4.7c-2.9-2.4-6.3-2.8-7.8-2.8c-0.5,0-0.9,0.2-1.2,0.5s-0.5,0.8-0.5,1.2
		C28,22,26.2,25.5,25.2,27c-1-2.1-1.3-6.6-1.2-10.3c0-0.9-0.6-1.6-1.5-1.7c-0.3,0-0.5-0.1-0.8-0.1c0,0-0.1,0-0.1,0
		c-0.1,0-0.3,0-0.4,0c-0.2,0-0.4,0-0.6,0.1c-0.1,0-0.2,0.1-0.4,0.1c-0.2,0.1-0.5,0.1-0.7,0.2c-0.1,0-0.2,0.1-0.3,0.1
		c-0.2,0.1-0.5,0.2-0.8,0.3c-0.1,0-0.2,0.1-0.3,0.1c-0.3,0.1-0.5,0.2-0.8,0.4c-0.1,0-0.2,0.1-0.2,0.1c-0.2,0.1-0.5,0.3-0.7,0.4
		c-0.1,0-0.2,0.1-0.2,0.1c-0.2,0.1-0.5,0.3-0.7,0.4c-0.1,0-0.2,0.1-0.2,0.2c-0.2,0.2-0.5,0.3-0.7,0.5c-0.1,0-0.1,0.1-0.2,0.1
		c0.6-1,1.2-1.9,1.8-2.6c0.8-0.9,1.5-1.6,2.2-2c0,0,0.1-0.1,0.1-0.1c0,0,0.1-0.1,0.1-0.1c0.1-0.1,0.2-0.2,0.3-0.2
		c0.5-0.3,0.8-0.9,0.8-1.6s-0.5-1.2-1-1.4c0,0-0.1,0-0.2-0.1c-0.2-0.1-0.5-0.1-0.7-0.2c-0.1,0-0.3-0.1-0.4-0.1c0,0-0.1,0-0.1,0
		c0,0,0,0-0.1,0c-1.1-0.2-2.5-0.2-4.1-0.1C14.8,9,16.7,8.6,18.7,8.6z M26.5,51.7C13,51.7,2,41.7,2,29.5c0-6.2,2.9-12.1,7.9-16.4
		c2.2-0.6,4.5-1,6.9-1.4c0.1,0,0.3,0.1,0.4,0.1c-0.6,0.4-1.2,1-1.9,1.7c0,0,0,0-0.1,0.1c-0.2,0.2-0.4,0.5-0.7,0.7
		c-0.1,0.1-0.2,0.2-0.2,0.3c-0.2,0.2-0.3,0.4-0.5,0.6c-0.1,0.2-0.3,0.4-0.4,0.6c-0.1,0.1-0.2,0.2-0.3,0.4c-0.2,0.4-0.4,0.7-0.6,1.1
		c0,0,0,0,0,0c-0.2,0.4-0.4,0.8-0.6,1.3c-0.2,0.5-0.2,1.1,0.1,1.6c0.5,0.8,1.7,1,2.5,0.4c2.9-2.4,5.5-3.7,7.5-3.5
		c0,2.8,0.1,8.9,1.8,11.5c0.3,0.5,0.8,0.8,1.4,0.8c0.5,0,1-0.3,1.4-0.7c0.9-1.2,2.8-4.4,3.3-9.3c0.1-0.7,0.1-1.4,0.1-2.2
		c1.5,0.1,4.4,0.6,6.8,2.9c0.7,0.6,1.8,0.6,2.4-0.1c0.3-0.4,0.5-0.8,0.4-1.3c-0.2-1.4-0.8-3.2-2.3-4.9c0-0.1-0.1-0.1-0.1-0.1
		c-0.1-0.1-0.2-0.1-0.2-0.2c-0.5-0.5-1.1-1-1.8-1.5c0.9-0.2,2.2-0.3,4.1-0.3c0.1,0,0.2,0,0.3,0c0.1,0,0.2,0,0.4,0l0.4,0
		c0.3,0,0.6,0.1,0.9,0.1l0.2,0c6.1,4.2,9.5,10.7,9.5,17.6C50.9,41.7,39.9,51.7,26.5,51.7z"/>
	<path d="M6.1,30.7c-0.1-0.5-0.6-0.9-1.1-0.8C4.4,30,4,30.5,4.1,31c0.2,1.5,0.7,2.9,1.5,4.2c0.2,0.3,0.5,0.5,0.9,0.5
		c0.2,0,0.3,0,0.5-0.1c0.5-0.3,0.6-0.9,0.3-1.4C6.7,33.1,6.2,31.9,6.1,30.7z"/>
	<path d="M5.1,27.7C5.1,27.7,5.2,27.7,5.1,27.7c0.6,0,1-0.4,1.1-0.9c0.1-1.1,0.3-2.2,0.7-3.3c0.2-0.5-0.1-1.1-0.6-1.3
		S5.2,22.3,5,22.8c-0.4,1.2-0.7,2.5-0.8,3.8C4.2,27.2,4.6,27.6,5.1,27.7z"/>
</g>
</svg>
