<?xml version="1.0" encoding="utf-8"?>
<!-- Generator: Adobe Illustrator 23.0.1, SVG Export Plug-In . SVG Version: 6.00 Build 0)  -->
<svg version="1.1" id="Layer_1" xmlns="http://www.w3.org/2000/svg" xmlns:xlink="http://www.w3.org/1999/xlink" x="0px" y="0px"
	 viewBox="0 0 59 73" style="enable-background:new 0 0 59 73;" xml:space="preserve">
<g>
	<path d="M57.8,26.7c2-2.6,1.2-5,0.5-5.9c-1.7-2.5-4-3.9-6.8-4.3c0.3-0.2,0.5-0.5,0.8-0.7c1.8-1.7,2.6-3.4,2.5-5.3
		c-0.1-2.8-2.5-4.6-2.6-4.8c-1.1-0.7-2.3-1.1-3.6-1.1c-2.9,0-5.2,1.8-5.3,1.8l-0.2,0.2c-0.1,0.1-0.1,0.2-0.2,0.3
		C42.2,4.7,41,2.8,39,1.5c-0.4-0.3-2-1.5-4.2-1.5c-1,0-1.9,0.2-2.8,0.7c-0.4,0.2-0.8,0.5-1.2,0.8c-0.5-0.1-1.1-0.3-1.7-0.3
		s-1.1,0.1-1.6,0.3c-1.5,0.5-2.6,1.9-2.7,3.5c-0.2,1.8,0.7,3.5,2.3,4.4c1.4,0.8,3.1,2.3,4.7,5.1c-0.9-0.1-1.8,0-2.7,0.3
		C23.8,16.6,3.7,46.1,0.2,55.7c-0.3,0.7-0.2,1.4,0.2,2c0.4,0.5,0.9,0.8,1.6,0.8l0,0c0.3,0,0.5,0,0.8-0.2c9.6-3.6,39.2-23.6,41-28.6
		c0.2-0.7,0.4-1.4,0.4-2.1c2.7,1.3,4.2,2.6,5,3.7c1.1,1.5,2.9,2.5,4.7,2.5c1.5,0,2.8-0.7,3.7-1.9c1.2-1.7,0.8-3.6,0.1-4.8
		C57.6,26.9,57.7,26.8,57.8,26.7z M56.6,22c0,0,1.1,1.4-0.3,3.3c-0.1-0.1-0.2-0.2-0.3-0.3c-0.2-0.2-0.3-0.4-0.5-0.6
		c-0.2-0.2-0.4-0.4-0.7-0.6c-0.2-0.2-0.4-0.3-0.6-0.5c-0.2-0.2-0.5-0.4-0.7-0.5c-0.2-0.1-0.4-0.3-0.6-0.4c-0.2-0.2-0.5-0.3-0.8-0.5
		c-0.2-0.1-0.4-0.2-0.6-0.3c-0.3-0.1-0.6-0.2-0.8-0.4c-0.2-0.1-0.4-0.2-0.6-0.2c-0.3-0.1-0.6-0.2-0.9-0.3c-0.2,0-0.4-0.1-0.6-0.2
		c-0.4-0.1-0.7-0.1-1.1-0.2c-0.2,0-0.3-0.1-0.5-0.1c-0.5-0.1-1.1-0.1-1.7-0.1l0,0l0,0c-0.5,0-1,0-1.5,0.1c-0.1,0-0.2,0-0.3,0
		c-0.5,0-1,0.1-1.4,0.2c0,0-0.1,0-0.1,0c0.4-0.2,0.9-0.4,1.4-0.6c0,0,0.1,0,0.1,0c0.2-0.1,0.5-0.2,0.7-0.2c0,0,0.1,0,0.2,0
		c0.2-0.1,0.5-0.2,0.7-0.2c0,0,0.1,0,0.1,0c0.8-0.2,1.5-0.4,2.3-0.6c0,0,0.1,0,0.2,0c0.2,0,0.4-0.1,0.6-0.1c0.5-0.1,1.1-0.1,1.6-0.1
		C52.8,18.4,55,19.5,56.6,22z M44.3,8.1c0.4-0.3,2.1-1.4,4-1.4c0.9,0,1.7,0.2,2.4,0.7c0,0,1.7,1.4,1.8,3.2c0.1,1.2-0.6,2.5-1.9,3.7
		C50,15.1,49,15.8,48,16.5c-0.1,0-0.1,0-0.2,0c-0.3,0-0.5,0.1-0.8,0.1c-0.1,0-0.2,0-0.3,0.1c-0.3,0.1-0.5,0.1-0.8,0.2
		c-0.1,0-0.2,0-0.3,0.1c-0.3,0.1-0.6,0.1-0.8,0.2c-0.1,0-0.1,0-0.2,0.1c-0.3,0.1-0.6,0.2-0.9,0.3c0,0,0,0-0.1,0
		c-1.4,0.5-2.7,1.1-3.7,1.6c0.6-1.1,1.2-2.5,1.8-3.9c0-0.1,0.1-0.2,0.1-0.3c0.1-0.3,0.2-0.5,0.3-0.8c0-0.1,0.1-0.3,0.1-0.4
		c0.1-0.2,0.1-0.5,0.2-0.8c0-0.2,0.1-0.3,0.1-0.5c0.1-0.2,0.1-0.5,0.2-0.8c0-0.2,0.1-0.3,0.1-0.5c0-0.2,0.1-0.5,0.1-0.8
		c0-0.1,0-0.2,0-0.3C43.3,9.5,43.8,8.7,44.3,8.1z M32.8,2.5C33.4,2.2,34.1,2,34.7,2c1.7,0,3,1.1,3,1.1c0,0,0.1,0.1,0.1,0.1
		c1.6,1,2.6,2.4,2.9,4.2c0.2,0.8,0.2,1.6,0.1,2.4l0,0.1c-0.1,1.6-0.6,3.2-1.1,4.7c0.1-2.6-0.4-5.4-2.2-7.9c0,0,0-0.1-0.1-0.1
		c-0.2-0.2-0.3-0.4-0.5-0.7c0-0.1-0.1-0.1-0.2-0.2c-0.2-0.2-0.3-0.4-0.5-0.5C36.2,5.1,36.1,5.1,36,5c-0.2-0.2-0.4-0.3-0.5-0.5
		c-0.1-0.1-0.1-0.1-0.2-0.2C35,4,34.7,3.8,34.4,3.6c0,0-0.1,0-0.1-0.1c0,0-0.1-0.1-0.2-0.2c0,0-0.1,0-0.1-0.1
		c-0.1-0.1-0.2-0.1-0.3-0.2c-0.1,0-0.1-0.1-0.2-0.1c-0.1-0.1-0.2-0.1-0.3-0.2C33,2.6,33,2.5,32.8,2.5z M27.9,7.7
		c-0.9-0.5-1.4-1.5-1.3-2.4c0-0.4,0.2-1.4,1.4-1.8c0.3-0.1,0.6-0.2,1-0.2c0.7,0,1.5,0.2,2.1,0.5c0.1,0,0.1,0.1,0.2,0.1
		C31.5,4,31.6,4,31.7,4.1c0.1,0,0.1,0.1,0.2,0.1c0.2,0.1,0.3,0.2,0.4,0.3c0,0,0,0,0,0c0.2,0.1,0.3,0.2,0.4,0.3c0,0,0,0,0.1,0.1
		C32.9,4.9,33,5,33,5c0,0,0,0,0.1,0.1c0,0,0.1,0.1,0.1,0.1c0.4,0.3,0.8,0.7,1.2,1c0.1,0.1,0.2,0.2,0.3,0.3c0.3,0.3,0.5,0.5,0.7,0.8
		c0.1,0.1,0.2,0.2,0.3,0.4c0.2,0.3,0.4,0.6,0.6,0.9c0.1,0.1,0.1,0.2,0.2,0.3c0.2,0.4,0.4,0.7,0.5,1.1c0,0.1,0,0.1,0.1,0.2
		c0.7,1.9,0.9,4,0.5,6.4c-0.3,1.6-0.8,3.1-1.3,4.3c-0.2-0.6-0.3-1.2-0.5-1.7c0-0.1-0.1-0.2-0.1-0.3c-0.2-0.5-0.3-1-0.5-1.5
		c0-0.1-0.1-0.2-0.1-0.2C32.8,11.6,30.1,8.9,27.9,7.7z M41.9,29c-0.5,1.5-4.3,4.8-9.4,8.6c-0.1,0-0.2-0.1-0.3-0.1
		c-1.6-0.2-3.8-1-4.8-2.5c-0.3-0.5-0.9-0.6-1.4-0.2c-0.5,0.3-0.6,0.9-0.2,1.4c1.1,1.6,2.9,2.5,4.6,3c-3.2,2.3-6.7,4.7-10.2,7
		c-0.1-0.1-0.3-0.2-0.5-0.3c-1-0.1-2.4-0.6-3-1.5c-0.3-0.5-0.9-0.6-1.4-0.2c-0.4,0.3-0.6,0.9-0.2,1.4c0.7,1,1.9,1.7,3,2.1
		c-6.5,4.1-12.6,7.6-15.9,8.8c0,0,0,0-0.1,0c0,0,0,0,0-0.1c0.8-2.2,2.3-5.1,4.2-8.3c0,0,0.1,0.1,0.1,0.1c0.7,0.5,1.5,1,2.3,1.4
		c0.1,0.1,0.3,0.1,0.4,0.1c0.4,0,0.7-0.2,0.9-0.6c0.2-0.5,0-1.1-0.5-1.3c-0.7-0.3-1.3-0.7-1.9-1.2c-0.1-0.1-0.2-0.1-0.3-0.2
		c2.3-3.9,5.2-8.2,8-12.3c0.4,1,1,2,2,2.7c0.2,0.1,0.4,0.2,0.6,0.2c0.3,0,0.6-0.2,0.8-0.4c0.3-0.5,0.2-1.1-0.2-1.4
		c-0.9-0.7-1.4-2-1.5-3c0-0.1,0-0.1,0-0.2c2.2-3.1,4.4-6,6.3-8.5c0.5,1.6,1.4,3.5,3,4.6c0.2,0.1,0.4,0.2,0.6,0.2
		c0.3,0,0.6-0.1,0.8-0.4c0.3-0.5,0.2-1.1-0.2-1.4c-1.5-1-2.3-3.2-2.5-4.8c0,0,0-0.1,0-0.1c2.2-2.7,4-4.5,4.9-4.8
		c0.5-0.2,1-0.3,1.5-0.3c0.5,0,1,0.1,1.6,0.2c0.4,1,0.8,2.1,1.2,3.2c0,0.1,0,0.1,0.1,0.2c0.2,0.5,0.3,1,0.4,1.5
		c0,0.1,0.1,0.2,0.1,0.3c0.2,0.6,0.3,1.2,0.5,1.9c0,0,0,0.1,0,0.1c0,0,0,0.1,0,0.1c0,0,0,0,0,0c0,0,0,0,0.1,0.1c0,0,0,0,0,0
		c0,0,0,0.1,0.1,0.1c0,0,0,0,0,0l0,0l0,0c0,0,0,0,0,0c0,0,0.1,0,0.1,0.1c0,0,0,0,0,0c0,0,0,0,0.1,0.1c0,0,0,0,0,0c0,0,0,0,0.1,0
		s0,0,0.1,0c0,0,0.1,0,0.1,0c0.6,0.1,1.1,0.3,1.7,0.5c0.1,0,0.2,0.1,0.4,0.1c0.4,0.1,0.8,0.2,1.3,0.4c0.1,0,0.2,0.1,0.3,0.1
		c0.4,0.1,0.8,0.3,1.2,0.4c0.1,0,0.1,0,0.2,0.1c0.5,0.2,0.9,0.3,1.3,0.5c0,0,0,0,0,0C42.2,27.5,42.1,28.3,41.9,29z M55.7,30.7
		c-0.5,0.6-1.2,1-2,1c-1.1,0-2.3-0.6-3-1.6c-1.4-1.9-3.8-3.6-7.3-5c0,0,0,0,0,0c0,0-0.1,0-0.1,0c-0.3-0.1-0.6-0.2-0.9-0.4
		c-0.3-0.1-0.5-0.2-0.8-0.3c-0.3-0.1-0.6-0.2-0.9-0.3c-0.4-0.1-0.8-0.3-1.2-0.4c-0.2-0.1-0.3-0.1-0.5-0.2c0.1,0,0.3-0.1,0.4-0.1
		c0.1,0,0.3-0.1,0.4-0.1c0.1,0,0.1,0,0.2-0.1c0.2,0,0.3-0.1,0.5-0.2c0,0,0.1,0,0.1,0c0.2-0.1,0.4-0.1,0.6-0.2c0,0,0,0,0,0
		c1-0.2,2.1-0.5,3.3-0.5c0.2,0,0.4,0,0.6,0c0.1,0,0.2,0,0.3,0c4.1,0,7.5,1.7,10.1,5.2l0.1,0.2c0,0,0,0,0,0
		C55.8,27.9,56.7,29.4,55.7,30.7z"/>
	<path d="M40.4,28.6c-2-0.8-3.9-2.2-5.6-4.2c-0.4-0.4-1-0.5-1.4-0.1c-0.4,0.4-0.5,1-0.1,1.4c1.9,2.2,4.1,3.8,6.5,4.7
		c0.1,0,0.2,0.1,0.4,0.1c0.4,0,0.8-0.2,0.9-0.6C41.2,29.4,40.9,28.8,40.4,28.6z"/>
</g>
</svg>
