<?xml version="1.0" encoding="utf-8"?>
<!-- Generator: Adobe Illustrator 23.0.1, SVG Export Plug-In . SVG Version: 6.00 Build 0)  -->
<svg version="1.1" id="Layer_1" xmlns="http://www.w3.org/2000/svg" xmlns:xlink="http://www.w3.org/1999/xlink" x="0px" y="0px"
	 viewBox="0 0 51.3 72" style="enable-background:new 0 0 51.3 72;" xml:space="preserve">
<path d="M51.3,20c0.1-3.9-2.2-7.4-5.8-8.9C45,7.8,42.3,5.2,39,4.8c0-0.3-0.1-0.7-0.2-1c-0.6-2-2.3-3.5-4.4-3.8
	c-1.3-0.2-2.6,0.2-3.6,0.9c-0.9-0.6-2-0.9-3.1-0.9c-2.9,0-5.2,2.1-5.6,4.9c-0.1,0-0.2,0.1-0.3,0.1c-0.1-0.2-0.2-0.4-0.3-0.7
	C20,1.4,17.3-0.3,15,0.1c-1.6,0.2-2.9,1.3-3.6,2.9C10,2.4,8.5,2.3,7.3,2.7c-1.4,0.5-2.4,1.5-3,3c-0.8,1.9-0.8,4.4,0,6.8
	c-1.1,0.8-1.9,1.9-2.4,3.3C1,18,1.2,20.8,2.5,23.4C2.7,23.7,2.8,24,3,24.3c-1.2,0.8-2.1,1.9-2.6,3.4c-0.8,2.2-0.4,4.9,0.9,7.2
	c0.6,1.1,1.5,2.1,2.4,2.9c-0.3,1.3-0.1,2.8,0.7,4.2c1.1,1.9,3.1,3.1,5.2,3.3c3.3,6.2,7.4,8.8,13.6,11.5l0.2,0.1l0,0
	c0.8,0.5,1.8,0.8,2.8,0.8c1.9,0,3.6-0.8,4.6-2.2c0.8-1,0.9-2.3,0.5-3.6c-1.8-5.3-1.8-9.4,0.2-12c2.5-3.5,7.7-4,10.5-4
	c1.5,0,2.5,0.1,2.5,0.1l1,0.1l0.1-1c0-0.1,0.3-3.4-1.6-5.5c-0.1-0.1-0.2-0.2-0.3-0.4c0.5-0.1,1.1-0.3,1.6-0.5
	C48.8,27.1,51.2,23.8,51.3,20z M11.1,43.8l-0.3-0.5h-0.6c-1.6,0-3.2-1-4-2.4c-0.6-1-0.7-2.2-0.3-3.1L6.1,37l-0.6-0.5
	c-1-0.7-1.8-1.7-2.4-2.7C2,32,1.7,30,2.3,28.3c0.4-1.3,1.3-2.2,2.5-2.7L6,25.1l-0.8-1c-0.4-0.5-0.7-1-0.9-1.5
	c-1-2.1-1.3-4.4-0.6-6.2c0.4-1.2,1.2-2.1,2.2-2.6l0.9-0.4l-0.4-0.9l0-0.1c-0.9-2.1-1-4.3-0.3-5.9C6.3,5.8,6.9,5,7.9,4.6
	c1-0.3,2.2-0.1,3.4,0.7l1.1,0.8l0.4-1.3c0.4-1.5,1.3-2.5,2.5-2.7c1.5-0.3,3.3,1.1,4.3,3.1c0.1,0.2,0.2,0.3,0.2,0.5c0,0,0,0-0.1,0
	c-0.2,0.1-0.4,0.2-0.6,0.4c-0.1,0.1-0.2,0.2-0.3,0.3c-0.1,0.1-0.1,0.1-0.2,0.2c-0.4,0.4-0.8,0.8-1.1,1.2c0,0,0,0.1-0.1,0.1
	c-0.2,0.3-0.3,0.5-0.5,0.8c0,0.1-0.1,0.1-0.1,0.2c-0.1,0.1-0.1,0.3-0.2,0.4c-0.1,0.1-0.1,0.3-0.1,0.4c0,0.1-0.1,0.2-0.1,0.4
	c0,0.2-0.1,0.4-0.1,0.7c0,0.1,0,0.2,0,0.2c0,0.3-0.1,0.6-0.1,0.8c0,0.2,0,0.4,0,0.6c-3.8,0.7-6.6,4-6.6,7.9c0,1.1,0.2,2.3,0.7,3.3
	c-1.1,1.1-1.7,2.6-1.7,4.2c0,2.4,1.4,4.5,3.4,5.5c0,0.5,0,1.1,0,1.6c0,0.2,0,0.3,0,0.5c0,0.3,0,0.7,0.1,1c0,0.2,0,0.4,0.1,0.6
	c0,0.3,0.1,0.6,0.1,0.9c0,0.2,0.1,0.4,0.1,0.6c0.1,0.3,0.1,0.6,0.1,0.8c0,0.2,0.1,0.4,0.1,0.5c0.1,0.3,0.1,0.5,0.2,0.8
	c0,0.2,0.1,0.3,0.1,0.5c0.1,0.3,0.2,0.6,0.2,0.8c0.1,0.2,0.1,0.3,0.1,0.5c0.1,0.3,0.2,0.7,0.4,1c0,0.1,0.1,0.2,0.1,0.3
	c0.2,0.4,0.4,0.8,0.5,1.2c0.1,0.1,0.1,0.2,0.2,0.3c0.1,0.3,0.3,0.6,0.4,0.9c0.1,0.2,0.2,0.3,0.3,0.5c0.1,0.2,0.3,0.5,0.4,0.7
	c0.1,0.2,0.2,0.3,0.3,0.5c0.1,0.2,0.3,0.5,0.4,0.7c0.1,0.2,0.2,0.3,0.3,0.5c0.1,0.2,0.3,0.5,0.5,0.7c0.1,0.2,0.2,0.3,0.4,0.5
	c0.2,0.2,0.4,0.5,0.5,0.7c0.1,0.2,0.2,0.3,0.4,0.5c0.2,0.2,0.4,0.5,0.6,0.8c0.1,0.2,0.2,0.3,0.4,0.5c0,0,0,0,0,0
	C16,50.8,13.4,48.3,11.1,43.8z M40,27.1l-0.3,0l-1,0.2l-0.1,2.2l1,0c1.2,0.1,2.2,0.5,2.8,1.2c0.8,0.9,1,2.2,1.1,3.1
	c-0.4,0-1,0-1.6,0c-3.2,0-9.2,0.6-12.1,4.8c-2.3,3.2-2.5,7.9-0.4,13.8c0.2,0.7,0.1,1.3-0.2,1.8c-0.2,0.3-0.6,0.6-1,0.8
	c-2-4.8-3.2-9.1-3.8-12.9c0,0,0,0,0-0.1c-0.5-3-0.7-5.8-0.6-8.2c1.4-2.4,5.5-2.5,5.6-2.5c0.5,0,1-0.5,1-1c0-0.5-0.5-1-1-1h0
	c-0.2,0-3,0.1-5.3,1.5c0.3-2,0.7-3.7,1.3-5.3c0.1-0.1,0.1-0.1,0.1-0.2c0.1-0.1,0.1-0.3,0.1-0.4c0.7-1.8,1.6-3.3,2.5-4.6
	c4.5-0.9,7.9,0.5,7.9,0.5C36,21,36.2,21,36.3,21c0.4,0,0.8-0.2,0.9-0.6c0.2-0.5,0-1.1-0.5-1.3c-0.1-0.1-2.9-1.2-6.9-1
	c1.9-2,3.6-2.9,3.9-3.1c1.5-0.7,3.6,0.2,4.3,0.6c0.2,0.1,0.3,0.1,0.5,0.1c0.3,0,0.7-0.2,0.9-0.5c0.3-0.5,0.1-1.1-0.3-1.4
	c-0.1-0.1-2.4-1.4-4.7-1.1c0.2-0.8,0.6-1.6,0.9-1.8c0.3-0.4,0.2-1.1-0.2-1.4S34,9.4,33.6,9.8c-0.1,0.1-1.4,1.8-1.4,3.8
	c-1.5,0.9-5.2,3.6-7.8,9c-0.1,0.3-0.3,0.6-0.4,0.9c-2.7-1.9-2.3-5.2-2.2-5.3c0.1-0.5-0.3-1-0.8-1.1c-0.5-0.1-1.1,0.3-1.1,0.8
	c-0.3,1.8,0.1,5.6,3.5,7.6c-0.7,2.2-1.3,4.8-1.5,7.9c0,0.1,0,0.2,0,0.3c-0.1,2.2,0,4.6,0.3,7.2c-1.3-0.7-1.9-1.7-1.9-1.8
	c-0.3-0.5-0.9-0.7-1.4-0.4s-0.7,0.9-0.4,1.3c0,0.1,1.2,2.3,4,3.2c0.7,3.7,1.9,7.8,3.7,12.4c-0.7,0-1.3-0.2-1.8-0.5l0,0
	c-0.1-0.1-0.2-0.1-0.3-0.2c-0.1-0.1-0.2-0.2-0.4-0.3l-0.4-0.5c-6.3-7.2-9.4-12.5-9.1-21.3l0-0.7l-0.7-0.2c-1.7-0.6-2.8-2.2-2.8-3.9
	c0-1.3,0.6-2.4,1.5-3.2l0.7-0.5l-0.4-0.7c-0.5-0.9-0.8-2-0.8-3c0-3.3,2.6-5.9,5.8-6.1l1.2-0.1l-0.3-1.2c-0.1-0.4-0.1-0.8-0.1-1.2
	c0-0.3,0-0.6,0.1-0.9c0-0.1,0-0.1,0-0.2c0-0.2,0.1-0.4,0.2-0.7c0-0.1,0-0.1,0.1-0.2c0.1-0.3,0.2-0.5,0.4-0.7c0,0,0,0,0,0
	c0.3-0.5,0.7-0.9,1.2-1.3c0.1-0.1,0.1-0.1,0.2-0.1c0.2-0.1,0.3-0.2,0.5-0.3c0.1-0.1,0.2-0.1,0.3-0.2C21.9,7,22.4,6.8,23,6.7L24,6.7
	V5.7V5.7c0-2,1.7-3.7,3.7-3.7c0.9,0,1.8,0.3,2.5,1l0.7,0.6l0.7-0.7c0.7-0.7,1.6-1,2.7-0.9c1.3,0.2,2.3,1.1,2.7,2.3
	C37,4.8,37,5.2,37,5.6l-0.1,1.1H38c2.9,0,5.4,2.3,5.6,5.2l0,0.7l0.6,0.2c3.1,1.1,5.1,4,5,7.2c-0.1,2.9-1.9,5.6-4.8,6.8
	C43,27.4,41.6,27.5,40,27.1z"/>
</svg>
