<?xml version="1.0" encoding="utf-8"?>
<!-- Generator: Adobe Illustrator 23.0.1, SVG Export Plug-In . SVG Version: 6.00 Build 0)  -->
<svg version="1.1" id="Layer_1" xmlns="http://www.w3.org/2000/svg" xmlns:xlink="http://www.w3.org/1999/xlink" x="0px" y="0px"
	 viewBox="0 0 50 72.8" style="enable-background:new 0 0 50 72.8;" xml:space="preserve">
<g>
	<path d="M38,12.2c-2.3,0-4.5,0.7-6.5,1.9c-1.9-1.2-4.1-1.9-6.5-1.9s-4.6,0.7-6.5,1.9c-2-1.3-4.2-1.9-6.5-1.9c-6.6,0-12,5.4-12,12.1
		l2,21.9c0,7.3,3.9,12,10,12c2.3,0,4.5-0.7,6.5-1.9c1.9,1.2,4.1,1.9,6.5,1.9s4.6-0.7,6.5-1.9c1.9,1.3,4.2,1.9,6.5,1.9
		c6.1,0,10-4.7,10-11.9l2-22.1C50,17.6,44.6,12.2,38,12.2z M12,56.2c-5.9,0-8-5.2-8-10.1L2,24.2c0-5.5,4.5-10,10-10
		c1.7,0,3.3,0.4,4.8,1.2c-2.3,2.2-3.8,5.3-3.8,8.8v22c0,3.5,1.5,6.6,3.8,8.8C15.3,55.8,13.7,56.2,12,56.2z M19.5,54.6l-0.4-0.3
		c-1.9-1.4-3.2-3.4-3.8-5.7c0,0,0,0,0-0.1c-0.1-0.3-0.1-0.7-0.2-1c0-0.1,0-0.1,0-0.2c0-0.4-0.1-0.8-0.1-1.1v-22c0-0.4,0-0.8,0.1-1.1
		c0-0.1,0-0.1,0-0.2c0-0.3,0.1-0.7,0.2-1c0,0,0,0,0-0.1c0.6-2.2,1.9-4.3,3.8-5.7l0.4-0.3c1.6-1,3.5-1.6,5.5-1.6s3.9,0.6,5.5,1.6
		l0.4,0.3c1.9,1.4,3.2,3.4,3.8,5.7c0,0,0,0,0,0.1c0.1,0.3,0.1,0.6,0.2,1c0,0.1,0,0.1,0,0.2c0,0.4,0.1,0.8,0.1,1.1v22
		c0,0.4,0,0.8-0.1,1.1c0,0.1,0,0.1,0,0.2c0,0.3-0.1,0.7-0.2,1c0,0,0,0,0,0.1c-0.6,2.2-1.9,4.3-3.8,5.7l-0.4,0.3
		c-1.6,1-3.5,1.6-5.5,1.6S21.1,55.6,19.5,54.6z M46,46.2c0,4.8-2.1,10-8,10c-1.7,0-3.3-0.4-4.8-1.2c2.3-2.2,3.8-5.3,3.8-8.8v-22
		c0-3.5-1.5-6.6-3.8-8.8c1.5-0.8,3.1-1.2,4.8-1.2c5.5,0,10,4.5,10,9.9L46,46.2z"/>
	<path d="M27.8,11h0.7l0.2-0.7c0.3-0.9,0.7-1.6,1.3-2.3c1-1.2,2.5-2,4.4-2.5l0.7-0.2l0-0.8c0-1.1,0-2.3,0-3.5L35.2,0L34,0.2
		c-3.4,0.7-6.1,2.1-8,4.3c-1.3,1.5-2.2,3.3-2.7,5.3l-0.3,1.3l1.3-0.1C25.6,11,26.8,11,27.8,11z M27.6,5.9c1.4-1.6,3.3-2.7,5.7-3.4
		c0,0.5,0,0.9,0,1.4c-2,0.6-3.6,1.6-4.7,2.9C28,7.4,27.5,8.2,27.1,9c-0.5,0-0.9,0-1.4,0C26.1,7.8,26.8,6.8,27.6,5.9z"/>
</g>
</svg>
